<?xml version="1.0" standalone="no"?>
<!DOCTYPE svg PUBLIC "-//W3C//DTD SVG 20010904//EN"
 "http://www.w3.org/TR/2001/REC-SVG-20010904/DTD/svg10.dtd">
<svg version="1.0" xmlns="http://www.w3.org/2000/svg"
 width="4948.000000pt" height="4447.000000pt" viewBox="0 0 4948.000000 4447.000000"
 preserveAspectRatio="xMidYMid meet">

<g transform="translate(0.000000,4447.000000) scale(0.100000,-0.100000)"
fill="#000000" stroke="none">
<path d="M12310 39895 c-296 -36 -578 -115 -890 -249 -511 -219 -931 -546
-1284 -1000 -383 -491 -571 -996 -553 -1484 8 -230 61 -404 177 -579 135 -206
331 -353 568 -427 321 -100 785 -81 1218 50 464 140 1005 448 1330 757 83 78
119 141 109 187 -6 25 -11 30 -37 30 -26 0 -56 -25 -197 -163 -233 -228 -404
-352 -661 -482 -494 -248 -1078 -330 -1495 -209 -292 84 -526 267 -644 501
-101 202 -124 496 -61 785 95 435 393 907 856 1358 284 276 567 470 913 626
529 238 1117 283 1456 111 78 -39 172 -114 215 -171 158 -209 158 -544 0 -819
-108 -189 -375 -429 -605 -544 -176 -88 -318 -123 -505 -123 -202 0 -342 51
-456 166 -76 76 -105 144 -105 245 -1 144 53 251 197 397 56 56 109 102 117
102 20 0 67 49 67 70 0 50 -64 28 -172 -59 -148 -119 -246 -245 -294 -377 -29
-80 -33 -204 -7 -280 60 -180 256 -318 523 -371 101 -19 320 -19 442 1 324 53
625 228 874 507 126 141 194 260 235 414 33 119 33 357 1 470 -36 123 -76 190
-172 285 -123 123 -253 191 -465 245 -177 45 -470 57 -695 30z"/>
<path d="M28459 39068 c-126 -62 -353 -320 -577 -655 -200 -300 -432 -688
-579 -971 l-86 -164 -174 -178 c-263 -270 -428 -404 -613 -499 -112 -57 -144
-66 -181 -51 -46 20 -68 104 -49 196 32 163 214 434 615 914 232 279 253 319
205 397 -24 39 -45 51 -116 64 -51 10 -60 8 -108 -15 -105 -52 -244 -199 -592
-631 -248 -309 -381 -460 -535 -610 -222 -216 -408 -339 -531 -352 -73 -7 -93
14 -92 101 1 82 25 159 89 291 123 252 444 697 697 969 86 92 102 114 102 141
0 18 -7 41 -14 51 -37 43 -132 56 -211 29 -97 -34 -140 -77 -483 -479 -404
-474 -569 -636 -831 -818 -146 -101 -406 -217 -582 -259 -174 -41 -339 -14
-395 64 -20 28 -23 44 -23 127 1 112 23 185 116 375 102 210 381 656 481 769
l43 48 235 33 c129 19 372 52 540 75 424 57 610 96 599 125 -3 7 -200 9 -574
6 -557 -3 -570 -3 -554 15 9 11 43 51 76 91 84 99 142 178 158 217 12 29 12
37 -3 66 -19 38 -94 84 -159 98 -78 18 -106 -8 -333 -301 l-125 -162 -185 -6
c-226 -6 -264 -19 -297 -97 -10 -25 -11 -42 -3 -72 18 -67 87 -94 203 -80 34
4 63 6 65 5 1 -1 -75 -155 -170 -341 l-172 -338 -116 -131 c-322 -359 -560
-545 -698 -545 -47 0 -58 4 -82 30 -44 47 -56 119 -36 200 38 149 138 333 355
655 195 290 291 445 291 471 0 29 -82 102 -124 109 -17 3 -51 4 -75 3 l-44 -3
-24 60 c-52 137 -167 178 -386 140 -206 -36 -415 -145 -652 -340 -121 -100
-378 -361 -460 -469 -135 -178 -373 -423 -540 -558 -322 -259 -613 -379 -798
-327 -165 45 -188 278 -55 543 86 170 155 269 452 641 116 145 176 228 176
244 0 15 -17 41 -49 72 -67 67 -91 66 -213 -7 -146 -89 -170 -97 -273 -98 -78
-1 -94 2 -122 22 -18 13 -34 35 -38 53 -6 27 3 43 89 157 121 160 156 226 163
301 5 50 2 60 -19 85 -28 33 -95 45 -151 26 -80 -26 -165 -158 -227 -355 -17
-55 -50 -134 -72 -175 -99 -182 -295 -454 -532 -739 -137 -164 -182 -231 -172
-257 25 -65 191 112 590 632 110 142 203 263 207 268 4 4 15 -6 24 -24 10 -18
37 -55 62 -81 48 -52 88 -69 159 -69 l42 0 -65 -97 c-36 -54 -98 -165 -138
-248 -127 -262 -171 -434 -162 -630 7 -152 32 -221 106 -296 80 -80 141 -103
286 -103 98 0 120 4 205 33 222 75 483 248 714 471 73 69 97 88 92 70 -56
-197 -39 -332 55 -434 73 -80 216 -146 316 -146 76 0 206 67 353 184 35 28
148 131 250 228 101 97 186 175 188 174 1 -2 -2 -39 -7 -83 -25 -198 39 -342
183 -415 191 -97 399 2 735 347 109 113 133 133 128 109 -24 -107 -30 -199
-19 -275 28 -194 133 -269 377 -269 203 0 387 48 613 160 263 131 490 303 711
539 62 67 131 135 152 152 39 31 39 30 -27 -73 -70 -110 -140 -248 -170 -338
-14 -41 -19 -84 -19 -170 0 -100 3 -122 24 -168 95 -210 367 -168 703 110 93
77 278 259 376 371 47 53 87 96 88 94 2 -2 -14 -66 -36 -143 -83 -290 -73
-396 48 -485 80 -59 193 -75 300 -44 109 33 369 235 636 495 82 80 146 136
143 125 -57 -188 -56 -355 3 -448 77 -122 304 -187 495 -143 168 39 378 180
619 415 82 80 147 139 143 130 -18 -51 -29 -149 -25 -226 3 -73 9 -97 33 -142
52 -94 151 -165 277 -197 172 -44 316 40 700 407 97 93 178 169 181 169 3 0 1
-17 -4 -37 -14 -61 -10 -202 7 -263 29 -106 129 -202 239 -231 52 -15 136 -6
206 20 125 47 323 204 500 396 46 50 86 91 90 93 4 2 0 -23 -8 -55 -8 -32 -15
-103 -16 -158 -1 -179 42 -264 165 -321 62 -28 67 -29 228 -29 148 1 176 4
270 28 279 74 559 228 819 451 80 68 103 84 97 65 -28 -99 -38 -181 -33 -269
6 -117 32 -191 85 -243 134 -131 456 -67 739 147 104 78 313 265 391 349 23
26 44 47 46 47 2 0 -3 -26 -11 -57 -51 -188 21 -404 157 -476 53 -28 59 -29
175 -25 114 4 125 6 197 40 98 46 174 98 268 183 196 175 472 526 570 723 45
90 60 141 60 200 0 43 1 43 53 64 113 47 271 133 315 173 54 50 52 65 -6 36
-80 -41 -189 -71 -254 -71 -35 0 -68 4 -74 8 -8 5 -8 27 2 82 18 99 17 154 -1
225 -27 104 -91 159 -200 174 -114 16 -226 -21 -362 -118 -187 -132 -465 -446
-674 -758 -101 -151 -175 -240 -309 -373 -244 -242 -628 -501 -786 -530 -91
-16 -142 10 -170 87 -43 121 11 278 186 539 78 116 349 478 512 682 l99 124
-18 30 c-10 17 -42 44 -70 60 -64 36 -124 39 -186 9 -131 -64 -324 -306 -512
-646 -62 -110 -94 -157 -154 -218 -201 -207 -461 -404 -647 -488 -215 -98
-394 -149 -520 -149 -110 0 -173 20 -217 69 -80 88 -59 235 72 506 100 209
388 670 488 783 46 51 8 43 563 117 678 90 878 128 855 165 -2 4 -259 5 -570
2 -311 -3 -565 -2 -565 3 0 4 40 55 88 114 159 191 182 241 137 292 -25 27
-102 66 -154 78 -71 16 -114 -24 -336 -312 l-120 -156 -163 -1 c-188 0 -240
-10 -288 -55 -28 -27 -34 -40 -34 -73 0 -89 42 -124 150 -124 38 0 84 3 101 7
l32 7 -35 -63 c-20 -35 -100 -190 -178 -344 -140 -272 -146 -283 -244 -395
-229 -261 -440 -450 -580 -520 -140 -71 -217 -52 -251 63 -21 70 -1 158 70
306 70 144 131 245 355 581 97 146 189 286 204 312 32 54 29 65 -33 121 -42
37 -76 48 -149 44 l-43 -2 -24 59 c-42 103 -101 144 -219 153 -186 14 -429
-71 -658 -229 -196 -136 -447 -375 -631 -603 -298 -368 -498 -562 -740 -719
-269 -175 -495 -212 -567 -93 -25 41 -27 153 -4 246 20 80 90 241 146 336 82
138 358 556 491 741 74 104 276 380 450 613 205 277 313 430 310 440 -18 51
-109 110 -169 111 -17 0 -60 -14 -95 -32z m-5729 -1043 c17 -16 28 -35 26 -41
-10 -26 -590 -816 -667 -909 -108 -130 -315 -336 -404 -403 -111 -83 -224
-134 -309 -140 -63 -4 -74 -1 -100 19 -41 32 -56 77 -56 166 0 100 18 166 75
278 67 133 190 290 365 466 326 326 594 516 830 585 25 7 82 12 127 11 76 -2
84 -4 113 -32z m7337 18 c76 -35 82 -22 -228 -449 -315 -435 -405 -548 -564
-713 -142 -147 -258 -239 -371 -297 -76 -39 -103 -47 -162 -52 -86 -6 -114 8
-143 71 -40 88 -19 237 52 382 156 314 695 833 1036 996 158 76 302 99 380 62z
m4425 -261 c54 -76 111 -140 147 -165 24 -16 24 -18 13 -68 -25 -106 -122
-268 -279 -463 -248 -311 -463 -481 -621 -494 -77 -6 -106 7 -135 63 -16 31
-21 58 -21 125 0 72 5 97 32 163 96 237 403 645 608 808 65 52 156 99 189 98
13 0 36 -23 67 -67z"/>
<path d="M40720 38813 c-91 -43 -313 -308 -523 -626 -265 -398 -419 -701 -482
-942 -29 -112 -31 -157 -10 -175 26 -22 63 16 123 126 61 112 130 214 310 459
270 367 587 768 766 969 54 60 96 116 94 124 -5 25 -63 59 -119 71 -70 15
-118 13 -159 -6z"/>
<path d="M33255 38606 c-32 -9 -60 -26 -78 -46 -27 -30 -29 -38 -25 -95 5 -78
35 -122 110 -159 90 -45 193 -29 262 40 78 79 57 175 -51 236 -63 36 -144 44
-218 24z"/>
<path d="M38491 38537 c-81 -61 -135 -110 -671 -613 -384 -360 -607 -586 -818
-826 -214 -245 -461 -447 -607 -499 -61 -21 -88 -24 -115 -9 -47 25 -58 189
-21 306 56 172 240 461 470 739 95 114 223 281 260 339 19 31 31 63 31 84 0
137 -152 172 -336 78 -211 -109 -605 -444 -1130 -959 -129 -126 -236 -228
-238 -226 -7 7 59 169 109 269 82 163 204 358 424 679 58 85 67 138 31 184
-28 35 -108 52 -154 33 -34 -14 -200 -204 -480 -551 -255 -315 -296 -364 -416
-489 -112 -116 -141 -160 -125 -185 23 -39 94 17 315 252 91 97 166 174 168
172 1 -1 -27 -69 -64 -151 -138 -312 -169 -404 -168 -509 1 -78 21 -135 62
-178 31 -33 93 -52 121 -38 27 15 115 118 313 366 373 468 619 735 883 956
102 85 215 172 215 166 0 -3 -77 -130 -171 -283 -188 -305 -242 -403 -294
-539 -59 -154 -77 -237 -79 -370 -1 -106 2 -126 22 -170 12 -27 30 -58 40 -68
56 -62 194 -84 296 -48 133 47 292 168 553 425 116 113 184 173 187 165 3 -8
21 -65 41 -126 54 -171 115 -285 194 -364 88 -88 145 -110 297 -117 192 -8
307 25 479 138 75 49 107 63 190 84 254 64 379 126 567 283 94 78 307 299 348
361 33 50 39 89 15 98 -15 6 -95 -42 -95 -57 0 -19 -273 -288 -359 -352 -166
-125 -336 -200 -483 -214 -66 -6 -70 -5 -65 13 15 50 62 270 126 591 75 378
96 465 143 613 40 125 66 175 146 279 82 105 102 144 102 194 0 56 -23 92 -70
111 -74 29 -110 22 -189 -37z m-210 -469 c-42 -397 -65 -535 -137 -828 -51
-208 -110 -371 -158 -433 -19 -26 -55 -53 -91 -72 -55 -28 -66 -30 -169 -30
-103 0 -115 2 -177 31 -125 60 -209 173 -228 310 -13 86 0 153 42 222 104 173
519 600 815 839 58 46 107 81 110 79 2 -3 -1 -56 -7 -118z"/>
<path d="M18362 38280 c-274 -38 -561 -205 -879 -513 -137 -133 -249 -261
-366 -418 -149 -200 -433 -488 -622 -632 -143 -108 -289 -162 -327 -121 -22
25 -38 88 -38 149 1 198 146 454 536 941 71 89 156 199 188 244 53 73 60 88
60 130 0 95 -59 137 -176 126 -85 -8 -146 -35 -278 -124 -233 -157 -514 -403
-1060 -931 -104 -101 -190 -180 -190 -177 0 22 80 208 129 301 83 156 153 269
317 513 152 224 160 243 129 301 -25 49 -120 73 -172 44 -32 -18 -279 -308
-572 -672 -160 -199 -215 -262 -369 -423 -61 -64 -73 -82 -70 -105 2 -21 9
-29 28 -31 20 -3 59 32 243 220 l219 223 -27 -60 c-164 -368 -215 -510 -215
-605 0 -109 53 -198 132 -222 39 -11 39 -11 89 38 28 27 121 137 207 244 480
601 719 856 1032 1105 140 111 151 118 129 85 -115 -177 -355 -582 -400 -675
-105 -217 -144 -374 -137 -539 5 -110 18 -148 71 -203 68 -72 208 -83 329 -26
137 64 260 162 487 386 85 84 151 145 148 135 -3 -9 -11 -52 -17 -95 -28 -188
48 -324 228 -411 55 -26 91 -36 143 -40 66 -4 75 -3 144 33 116 59 268 188
554 470 l264 260 -153 -300 c-341 -666 -587 -1021 -855 -1230 -139 -108 -248
-159 -371 -171 -87 -9 -139 11 -202 80 -45 50 -92 144 -92 185 0 9 -7 27 -16
39 -15 22 -17 22 -34 7 -27 -24 -32 -60 -19 -124 27 -131 122 -257 238 -314
60 -29 74 -32 156 -31 288 1 598 221 924 653 150 200 345 524 611 1011 158
289 324 584 413 730 123 202 129 227 68 293 l-40 42 -76 0 -77 0 -24 59 c-13
33 -34 71 -47 84 -50 55 -167 79 -295 62z m231 -189 c45 -11 90 -49 84 -71 -6
-23 -560 -782 -650 -890 -321 -387 -583 -582 -764 -567 -91 7 -123 56 -123
189 0 205 144 442 457 754 339 337 636 538 858 579 87 16 91 17 138 6z"/>
<path d="M14407 38269 c-126 -19 -286 -128 -482 -330 -344 -355 -616 -772
-672 -1032 -36 -173 24 -357 145 -442 41 -28 50 -30 152 -33 168 -6 267 32
435 163 208 163 542 573 649 799 36 76 61 174 52 204 -5 15 13 27 101 67 60
27 137 65 172 85 66 36 141 98 141 118 0 5 -27 -3 -60 -19 -109 -52 -175 -70
-253 -67 l-72 3 3 30 c14 172 14 255 -2 303 -39 116 -158 174 -309 151z m-8
-504 c34 -47 84 -103 110 -126 l48 -41 -10 -47 c-27 -129 -153 -323 -381 -589
-210 -243 -398 -372 -542 -372 -48 0 -60 4 -84 28 -50 51 -65 168 -34 273 85
285 554 868 761 943 21 8 45 15 54 15 10 1 43 -35 78 -84z"/>
<path d="M39488 36774 c-65 -20 -98 -61 -98 -124 0 -62 11 -89 51 -130 84 -84
203 -93 297 -22 181 133 -14 349 -250 276z"/>
<path d="M25558 33762 c-97 -42 -175 -80 -172 -84 3 -4 -1 -5 -9 -3 -7 3 -42
-8 -78 -24 -42 -19 -56 -30 -41 -30 12 -1 22 4 22 9 0 6 4 10 9 10 15 0 13
-220 -3 -272 -8 -27 -12 -48 -8 -48 3 0 -3 -9 -13 -20 -10 -11 -16 -20 -14
-20 3 0 114 47 248 105 l243 104 182 -88 c207 -101 1306 -638 1971 -963 248
-122 758 -373 1135 -560 377 -187 718 -356 757 -375 63 -31 71 -38 60 -52 -11
-14 -10 -14 6 -2 15 12 24 11 67 -9 27 -13 46 -28 43 -33 -3 -6 -1 -7 5 -3 6
4 109 -43 229 -104 120 -61 209 -108 198 -104 -11 4 -28 7 -38 8 -10 2 -22 7
-25 12 -11 16 -75 43 -87 37 -5 -4 -7 -3 -3 2 12 13 -43 38 -56 25 -5 -5 -14
-10 -20 -10 -5 0 -1 7 10 15 19 14 19 14 -1 16 -11 1 -24 1 -28 0 -5 -1 -6 3
-3 8 9 14 -16 20 -39 8 -11 -5 -17 -6 -13 -2 9 9 -9 35 -23 35 -5 0 -9 -9 -9
-21 0 -19 -1 -19 -22 -5 -12 9 -30 16 -39 16 -10 0 -19 4 -21 9 -1 5 -12 11
-23 13 -11 1 -22 5 -25 8 -3 3 -32 18 -64 35 -71 35 -118 46 -68 15 54 -33
231 -120 244 -120 7 0 19 -9 26 -20 7 -11 21 -20 32 -20 12 0 23 -7 26 -15 4
-8 12 -15 20 -15 30 0 94 -46 94 -67 0 -19 -19 -16 -74 12 -37 19 -52 22 -60
14 -8 -9 -8 -10 2 -5 6 4 12 3 12 -2 0 -5 14 -15 30 -22 17 -7 33 -17 36 -22
3 -5 -42 15 -100 44 -57 28 -103 55 -100 59 2 4 -1 11 -7 15 -8 4 -9 3 -5 -4
4 -7 4 -12 0 -12 -11 0 -2098 1051 -2994 1507 -999 509 -1171 596 -1175 591
-2 -1 82 -112 186 -246 108 -138 187 -248 183 -254 -4 -6 -3 -8 3 -5 6 4 25
-12 43 -34 26 -33 30 -43 19 -50 -11 -7 -11 -9 -1 -9 7 0 10 -5 6 -12 -4 -7
-3 -8 5 -4 6 4 9 13 5 19 -3 7 10 -6 29 -27 19 -22 33 -46 30 -54 -5 -11 -7
-11 -14 0 -6 9 -9 9 -9 1 0 -6 5 -15 10 -18 7 -4 10 -715 10 -2101 0 -1991 -1
-2095 -17 -2090 -23 7 -199 23 -328 31 -55 3 -126 8 -157 11 -36 4 -58 2 -58
-4 0 -6 -50 -13 -115 -17 -113 -7 -115 -8 -115 -32 0 -23 -3 -24 -52 -22 -43
3 -54 0 -56 -14 -3 -14 -15 -17 -58 -17 -30 0 -54 -4 -54 -10 0 -5 -26 -10
-57 -12 -49 -3 -58 -6 -55 -20 2 -16 -6 -18 -58 -18 -47 0 -60 -3 -60 -15 0
-12 -13 -15 -55 -15 -30 0 -55 -4 -55 -10 0 -5 -22 -10 -50 -10 -43 0 -50 -3
-50 -20 0 -18 -7 -20 -60 -20 -44 0 -60 -4 -60 -14 0 -10 -29 -15 -112 -22
-103 -9 -111 -8 -116 9 -4 16 -16 18 -133 15 -123 -3 -129 -2 -129 17 0 19 -6
20 -105 17 -72 -2 -105 0 -105 8 0 8 -29 9 -100 4 -98 -7 -100 -6 -100 15 0
20 -5 21 -94 21 -75 0 -95 3 -100 15 -14 37 -293 3 -761 -90 -179 -36 -708
-155 -775 -175 -19 -5 -40 -10 -47 -10 -10 0 -13 379 -13 1846 0 1015 -3 1850
-6 1855 -3 5 0 9 6 9 6 0 8 5 5 10 -3 6 -1 10 5 10 6 0 4 7 -5 17 -16 15 -16
17 0 26 9 5 22 10 28 12 20 4 87 35 87 40 0 3 -21 -4 -47 -14 -135 -53 -182
-75 -178 -81 3 -4 -1 -8 -8 -7 -34 1 -48 -4 -41 -15 4 -6 3 -8 -4 -4 -12 7
-932 -382 -1802 -762 -705 -307 -2147 -935 -2165 -942 -11 -4 -387 -164 -835
-355 -1578 -672 -3867 -1618 -5644 -2331 -538 -217 -981 -396 -984 -399 -7 -7
-139 73 1143 -689 627 -373 1148 -686 1157 -695 26 -24 60 -371 93 -961 21
-369 33 -526 60 -820 28 -287 55 -641 85 -1087 16 -230 18 -318 10 -365 -5
-35 -10 -84 -10 -110 0 -26 -4 -49 -9 -53 -16 -9 -23 77 -20 223 l4 137 -32 0
c-30 0 -33 3 -44 50 -15 66 -26 85 -47 85 -24 0 -42 -19 -42 -46 0 -12 -3 -30
-6 -39 -6 -14 -8 -13 -18 7 -23 46 -76 30 -76 -24 0 -45 -15 -25 -29 39 -21
93 -36 123 -64 123 -48 0 -52 -17 -51 -234 0 -170 4 -226 27 -361 60 -352 121
-535 215 -637 l25 -27 -37 -17 c-31 -15 -36 -22 -34 -49 1 -22 -7 -43 -29 -71
-51 -64 -67 -129 -60 -247 13 -240 106 -391 277 -448 36 -12 67 -23 68 -25 2
-1 -32 -94 -76 -206 -297 -751 -513 -1593 -781 -3048 -179 -966 -225 -1361
-225 -1895 0 -324 12 -481 55 -718 37 -209 85 -374 111 -388 23 -12 55 -3 66
19 5 9 6 89 3 177 -6 144 -5 161 11 175 29 25 57 261 88 745 35 549 39 590
116 1061 30 182 54 341 54 353 0 13 4 19 10 16 6 -4 9 -14 6 -23 -5 -17 -29
-259 -41 -412 -4 -47 -17 -161 -30 -255 -60 -431 -77 -664 -77 -1010 0 -350
27 -626 85 -885 11 -48 15 -55 37 -55 20 0 25 7 31 35 4 19 15 294 24 610 9
316 18 577 21 581 2 4 9 196 14 427 5 231 17 516 25 633 59 796 200 1632 475
2804 78 336 78 335 95 335 19 0 20 11 -15 -202 -221 -1367 -356 -2235 -347
-2244 4 -4 47 225 104 551 50 290 51 292 51 265 1 -14 -3 -54 -7 -90 -47 -348
-152 -1220 -191 -1590 -14 -130 -36 -390 -52 -595 -13 -185 -18 -1002 -5
-1047 5 -18 14 -28 25 -28 16 0 20 -15 30 -100 17 -147 41 -253 60 -267 23
-18 66 -16 84 5 16 18 21 79 78 1082 82 1431 142 2098 260 2875 42 273 60 415
81 605 13 119 34 193 24 85 -9 -100 -51 -792 -75 -1245 -18 -329 -37 -536
-120 -1280 -90 -815 -124 -1266 -118 -1570 l3 -165 27 -3 c21 -2 30 3 43 25
15 26 15 21 10 -92 -3 -66 -8 -148 -11 -182 -5 -53 -3 -64 15 -82 45 -45 67
-21 106 114 36 126 72 329 93 535 l19 175 6 -190 c14 -388 28 -618 38 -636 12
-23 71 -26 89 -4 21 26 67 494 95 965 20 353 33 745 45 1360 20 1057 32 1163
40 350 10 -913 -1 -1544 -36 -2060 -14 -207 -22 -307 -56 -632 -10 -96 -10
-119 2 -133 19 -23 63 -15 75 13 8 19 15 22 41 17 22 -4 38 0 53 12 19 16 24
38 41 208 10 105 26 285 35 400 10 116 19 212 21 214 6 7 5 -71 -7 -340 -10
-233 -9 -252 7 -270 29 -32 63 -25 80 18 26 62 72 280 96 453 22 160 23 189
23 950 0 432 -4 1118 -8 1525 -4 406 -6 737 -3 735 2 -3 9 -95 15 -205 6 -110
22 -396 36 -635 37 -658 45 -882 45 -1244 1 -428 -5 -523 -81 -1483 -23 -277
-23 -282 -4 -303 30 -33 76 -24 97 20 41 85 112 408 137 630 53 460 64 1390
26 2145 -67 1329 -110 1867 -205 2535 -22 151 -50 366 -64 476 -14 111 -33
237 -41 280 -33 159 -93 313 -151 391 -13 17 -24 33 -24 36 0 2 21 25 46 52
26 26 58 73 73 104 24 51 26 67 26 186 0 121 -2 134 -27 188 -36 77 -78 129
-132 163 l-43 27 23 54 c73 164 144 604 125 763 -18 142 -36 190 -72 190 -40
0 -46 -22 -52 -187 -5 -159 -37 -367 -59 -388 -8 -7 -9 -2 -4 15 3 14 9 77 13
140 9 167 -35 406 -79 434 -24 15 -48 -10 -48 -49 0 -18 -3 -46 -6 -63 -6 -29
-6 -30 -25 -11 -10 10 -25 19 -33 19 -9 0 -15 19 -18 65 -3 36 -11 72 -18 80
-16 20 -66 19 -74 -1 -3 -8 -15 -92 -26 -187 -21 -175 -30 -214 -30 -136 -1
68 -19 180 -35 213 -16 30 -17 40 -36 256 -12 143 -50 528 -79 800 -76 717
-122 1217 -140 1525 -6 99 -15 220 -21 269 -5 49 -8 90 -7 91 2 2 490 -287
1086 -642 l1082 -645 0 -972 0 -972 142 23 c78 12 315 48 527 78 1455 207
3119 387 4681 504 705 54 1481 102 2110 131 124 6 308 15 410 20 102 6 237 11
300 12 102 1 107 2 45 7 l-70 6 -3 108 -3 107 -289 0 c-187 0 -290 4 -290 10
0 6 -9 10 -20 10 -11 0 -20 4 -20 9 0 5 -13 11 -30 15 l-30 6 0 205 c0 161 -3
205 -13 205 -7 0 -19 6 -25 12 -7 7 -20 13 -30 13 -15 0 -18 20 -23 195 -3
107 -6 196 -7 198 -1 1 -5 1 -9 0 -5 -1 -22 1 -40 5 l-32 6 -3 73 c-3 65 -5
73 -23 73 -11 0 -24 6 -28 13 -4 6 -15 12 -23 12 -12 0 -14 25 -13 165 0 90
-2 168 -5 173 -2 4 -23 17 -46 28 l-41 19 3 73 c2 39 0 72 -4 72 -4 0 -5 7 -1
16 3 8 12 13 19 10 8 -3 14 -2 14 2 0 4 16 16 36 27 79 42 97 105 42 147 -39
29 -104 59 -170 77 -27 8 -48 17 -48 22 0 5 -7 5 -17 2 -11 -4 -14 -3 -9 5 4
7 -3 17 -18 24 -26 11 -26 11 -26 144 l0 133 -29 20 c-16 12 -34 21 -40 21 -7
0 -11 45 -11 138 -1 150 -2 154 -62 191 -32 19 -38 28 -38 55 l0 33 68 6 c37
4 105 11 152 17 444 53 1330 130 2025 175 1032 67 2387 108 3400 103 231 -1
371 -4 311 -5 -103 -4 -108 -5 -103 -24 4 -16 -2 -24 -27 -34 -46 -20 -59 -39
-54 -84 3 -38 2 -40 -39 -60 l-43 -21 0 -113 0 -113 -35 -14 c-44 -17 -47 -29
-43 -168 l3 -112 -42 -18 c-43 -17 -43 -17 -43 -70 0 -30 -4 -51 -9 -47 -5 3
-26 -2 -46 -12 l-36 -17 2 -121 c2 -128 2 -128 -56 -148 -6 -2 -12 -60 -15
-133 l-5 -129 -35 -5 c-34 -5 -35 -7 -38 -51 -2 -38 -7 -48 -28 -58 -14 -6
-31 -11 -39 -11 -13 0 -15 -25 -15 -143 l0 -144 -40 -16 -40 -15 0 -135 c0
-177 -4 -197 -41 -197 -29 0 -29 0 -29 -64 0 -68 -6 -76 -56 -76 l-24 0 0
-184 0 -183 -40 -7 -40 -6 0 -115 0 -115 -275 0 -275 0 0 -80 0 -80 -237 -2
c-160 -2 -187 -3 -83 -5 1034 -15 1871 -36 2455 -63 2327 -107 4412 -348 6290
-725 231 -47 446 -91 477 -99 l57 -13 5 26 c15 69 70 495 100 771 36 325 71
766 82 1043 l7 169 36 22 c39 25 1412 821 3055 1772 571 331 1042 608 1047
616 7 13 -58 299 -74 325 -4 6 -564 293 -1244 638 -681 345 -1350 685 -1488
755 -137 71 -990 504 -1895 963 -905 459 -2254 1143 -2997 1521 -744 377
-1959 994 -2700 1370 -742 376 -1806 916 -2365 1200 -560 284 -1023 516 -1030
515 -7 0 -93 -35 -190 -77z m-61 -56 c0 -8 -6 -12 -15 -9 -11 5 -11 7 0 14 7
5 13 9 14 9 0 0 1 -6 1 -14z m-157 -61 c-7 -8 -17 -15 -23 -15 -6 0 -2 7 9 15
25 19 30 19 14 0z m17 -27 c0 -13 -1 -17 -4 -10 -4 9 -8 10 -18 2 -10 -8 -15
-8 -21 1 -4 7 -3 9 3 6 6 -4 16 0 23 8 16 19 16 19 17 -7z m-47 -292 c0 -3 -4
-8 -10 -11 -5 -3 -10 -1 -10 4 0 6 5 11 10 11 6 0 10 -2 10 -4z m1031 -683
c13 -16 12 -17 -3 -4 -17 13 -22 21 -14 21 2 0 10 -8 17 -17z m38 -47 c9 -11
9 -16 0 -22 -7 -4 -9 -3 -5 4 3 6 -2 15 -11 21 -10 6 -13 11 -7 11 6 0 17 -6
23 -14z m48 -64 c20 -24 26 -39 18 -39 -8 0 -12 4 -9 8 2 4 -1 11 -8 16 -12 8
-42 53 -35 53 2 0 18 -17 34 -38z m68 -82 c3 -5 1 -10 -4 -10 -6 0 -11 5 -11
10 0 6 2 10 4 10 3 0 8 -4 11 -10z m25 -39 c7 -14 7 -22 0 -26 -6 -4 -10 -3
-9 2 4 21 -2 34 -13 27 -7 -4 -8 -3 -4 4 10 16 14 15 26 -7z m-4495 -639 c-3
-3 -11 0 -18 7 -9 10 -8 11 6 5 10 -3 15 -9 12 -12z m8266 -549 c13 -16 12
-17 -3 -4 -17 13 -22 21 -14 21 2 0 10 -8 17 -17z m215 -80 c-2 -3 -21 4 -42
13 -22 9 -43 16 -47 15 -5 -1 -6 3 -2 8 3 6 23 2 50 -11 25 -12 43 -23 41 -25z
m39 -21 c-3 -3 -11 0 -18 7 -9 10 -8 11 6 5 10 -3 15 -9 12 -12z m-315 -2 c0
-5 -7 -7 -15 -4 -8 4 -15 8 -15 10 0 2 7 4 15 4 8 0 15 -4 15 -10z m35 -20 c3
-6 -1 -7 -9 -4 -18 7 -21 14 -7 14 6 0 13 -4 16 -10z m398 -29 c26 -13 47 -25
47 -27 0 -5 -37 10 -75 30 -16 9 -36 16 -42 16 -7 0 -13 5 -13 10 0 7 6 7 18
2 9 -5 38 -19 65 -31z m-338 -1 c3 -6 -1 -7 -9 -4 -18 7 -21 14 -7 14 6 0 13
-4 16 -10z m45 6 c0 -2 -8 -10 -17 -17 -16 -13 -17 -12 -4 4 13 16 21 21 21
13z m15 -36 c3 -6 -1 -7 -9 -4 -18 7 -21 14 -7 14 6 0 13 -4 16 -10z m45 -20
c0 -5 -7 -7 -15 -4 -8 4 -15 8 -15 10 0 2 7 4 15 4 8 0 15 -4 15 -10z m350 -5
c17 -9 30 -18 30 -21 0 -2 -9 0 -20 6 -11 6 -26 8 -32 4 -6 -4 -8 -3 -4 4 3 5
0 13 -6 15 -7 3 -9 6 -5 6 4 1 21 -6 37 -14z m-288 -27 c-7 -7 -17 -6 -32 5
-15 10 -18 16 -8 20 20 7 52 -13 40 -25z m53 -8 c-3 -5 -1 -10 5 -10 6 0 8 -5
4 -12 -6 -9 -9 -9 -12 0 -2 7 -9 9 -15 5 -7 -4 -6 1 2 10 15 18 26 23 16 7z
m350 -28 c-3 -3 -11 0 -18 7 -9 10 -8 11 6 5 10 -3 15 -9 12 -12z m-290 -22
c3 -6 -1 -7 -9 -4 -18 7 -21 14 -7 14 6 0 13 -4 16 -10z m67 -24 c6 4 8 3 5
-3 -4 -6 7 -16 23 -23 17 -7 29 -15 26 -17 -5 -5 -106 45 -106 53 0 2 9 0 20
-6 11 -6 26 -8 32 -4z m378 -32 c0 -2 -9 0 -20 6 -11 6 -20 13 -20 16 0 2 9 0
20 -6 11 -6 20 -13 20 -16z m-9243 -2890 c-3 -3 -12 -4 -19 -1 -8 3 -5 6 6 6
11 1 17 -2 13 -5z m83 -2128 c0 -8 -61 -12 -66 -4 -3 4 11 8 30 8 20 0 36 -2
36 -4z m-133 -12 c-3 -3 -12 -4 -19 -1 -8 3 -5 6 6 6 11 1 17 -2 13 -5z
m-8465 -3634 c5 -25 11 -158 14 -295 6 -227 5 -252 -10 -264 -37 -31 -59 35
-76 224 -10 112 0 351 16 376 3 6 16 9 27 7 17 -2 24 -12 29 -48z m-311 -90
c10 -59 43 -180 76 -277 32 -94 57 -176 55 -182 -2 -6 -12 -11 -22 -11 -25 0
-92 132 -125 245 -27 93 -53 291 -41 320 3 9 13 15 23 13 12 -2 20 -27 34
-108z m586 94 c23 -61 -87 -574 -124 -574 -16 0 -16 -5 2 54 18 58 37 168 65
370 12 83 23 154 26 158 8 13 24 9 31 -8z m-557 -664 c0 -5 -5 -10 -11 -10 -5
0 -7 5 -4 10 3 6 8 10 11 10 2 0 4 -4 4 -10z m599 -244 c26 -31 -94 -88 -222
-106 -94 -14 -267 9 -267 35 0 2 46 1 103 -2 121 -7 219 11 307 56 68 35 65
34 79 17z m51 -161 c19 -23 7 -40 -54 -74 -124 -71 -305 -107 -440 -87 -67 10
-53 30 28 38 79 8 158 31 316 92 130 51 133 52 150 31z m4 -467 c28 -92 80
-294 90 -348 4 -25 3 -31 -4 -20 -5 8 -10 23 -10 32 0 9 -29 106 -65 215 -36
109 -65 199 -65 200 0 2 7 3 15 3 9 0 23 -28 39 -82z m-394 -128 c-7 -39 -14
-70 -17 -70 -6 0 6 127 15 149 12 32 13 -11 2 -79z m344 -719 c8 -12 22 -118
51 -371 76 -671 106 -1237 107 -2010 0 -465 -14 -986 -28 -999 -15 -15 -21 39
-33 262 -6 133 -16 321 -21 417 -45 844 -126 2654 -121 2698 1 14 37 17 45 3z
m-234 -533 c0 -29 -5 -127 -10 -218 -5 -91 -19 -385 -30 -655 -51 -1233 -95
-1758 -195 -2350 -46 -269 -54 -305 -70 -305 -25 0 -26 18 -6 137 75 443 122
966 166 1818 41 799 60 1100 91 1435 16 185 17 190 39 190 12 0 15 -12 15 -52z"/>
<path d="M30467 30999 c7 -7 15 -10 18 -7 3 3 -2 9 -12 12 -14 6 -15 5 -6 -5z"/>
<path d="M25191 33606 c-20 -11 -21 -14 -7 -19 10 -4 15 -3 11 3 -3 6 1 10 9
10 8 0 18 5 21 10 8 14 -5 12 -34 -4z"/>
<path d="M25130 33580 c-8 -5 -10 -10 -5 -10 6 0 17 5 25 10 8 5 11 10 5 10
-5 0 -17 -5 -25 -10z"/>
<path d="M25075 33555 c-25 -12 -26 -14 -5 -9 14 4 29 10 35 15 12 12 5 11
-30 -6z"/>
<path d="M25010 33530 c-8 -5 -10 -10 -5 -10 6 0 17 5 25 10 8 5 11 10 5 10
-5 0 -17 -5 -25 -10z"/>
<path d="M24940 33500 c-8 -5 -10 -10 -5 -10 6 0 17 5 25 10 8 5 11 10 5 10
-5 0 -17 -5 -25 -10z"/>
<path d="M24800 33440 c-8 -5 -10 -10 -5 -10 6 0 17 5 25 10 8 5 11 10 5 10
-5 0 -17 -5 -25 -10z"/>
<path d="M24680 33390 c-8 -5 -10 -10 -5 -10 6 0 17 5 25 10 8 5 11 10 5 10
-5 0 -17 -5 -25 -10z"/>
<path d="M24540 33330 c-8 -5 -10 -10 -5 -10 6 0 17 5 25 10 8 5 11 10 5 10
-5 0 -17 -5 -25 -10z"/>
<path d="M25214 33281 c3 -5 -8 -14 -26 -20 -17 -6 -29 -14 -26 -17 4 -3 23 3
43 14 30 15 34 20 21 25 -9 4 -15 3 -12 -2z"/>
<path d="M24350 33250 c-8 -5 -10 -10 -5 -10 6 0 17 5 25 10 8 5 11 10 5 10
-5 0 -17 -5 -25 -10z"/>
<path d="M25120 33230 c-8 -5 -10 -10 -5 -10 6 0 17 5 25 10 8 5 11 10 5 10
-5 0 -17 -5 -25 -10z"/>
<path d="M25050 33200 c-8 -5 -10 -10 -5 -10 6 0 17 5 25 10 8 5 11 10 5 10
-5 0 -17 -5 -25 -10z"/>
<path d="M24210 33190 c-8 -5 -10 -10 -5 -10 6 0 17 5 25 10 8 5 11 10 5 10
-5 0 -17 -5 -25 -10z"/>
<path d="M24985 33170 c-3 -6 1 -7 9 -4 18 7 21 14 7 14 -6 0 -13 -4 -16 -10z"/>
<path d="M22840 32610 c-9 -6 -10 -10 -3 -10 6 0 15 5 18 10 8 12 4 12 -15 0z"/>
<path d="M22720 32560 c-8 -5 -10 -10 -5 -10 6 0 17 5 25 10 8 5 11 10 5 10
-5 0 -17 -5 -25 -10z"/>
<path d="M22390 32420 c-8 -5 -10 -10 -5 -10 6 0 17 5 25 10 8 5 11 10 5 10
-5 0 -17 -5 -25 -10z"/>
<path d="M22270 32370 c-8 -5 -10 -10 -5 -10 6 0 17 5 25 10 8 5 11 10 5 10
-5 0 -17 -5 -25 -10z"/>
<path d="M22010 32260 c-8 -5 -10 -10 -5 -10 6 0 17 5 25 10 8 5 11 10 5 10
-5 0 -17 -5 -25 -10z"/>
<path d="M21800 32170 c-8 -5 -10 -10 -5 -10 6 0 17 5 25 10 8 5 11 10 5 10
-5 0 -17 -5 -25 -10z"/>
<path d="M21680 32120 c-8 -5 -10 -10 -5 -10 6 0 17 5 25 10 8 5 11 10 5 10
-5 0 -17 -5 -25 -10z"/>
<path d="M21420 32010 c-8 -5 -10 -10 -5 -10 6 0 17 5 25 10 8 5 11 10 5 10
-5 0 -17 -5 -25 -10z"/>
<path d="M21350 31980 c-8 -5 -10 -10 -5 -10 6 0 17 5 25 10 8 5 11 10 5 10
-5 0 -17 -5 -25 -10z"/>
<path d="M21230 31930 c-8 -5 -10 -10 -5 -10 6 0 17 5 25 10 8 5 11 10 5 10
-5 0 -17 -5 -25 -10z"/>
<path d="M21090 31870 c-8 -5 -10 -10 -5 -10 6 0 17 5 25 10 8 5 11 10 5 10
-5 0 -17 -5 -25 -10z"/>
<path d="M22165 31851 c-3 -5 -2 -12 3 -15 5 -3 9 1 9 9 0 17 -3 19 -12 6z"/>
<path d="M21020 31840 c-8 -5 -10 -10 -5 -10 6 0 17 5 25 10 8 5 11 10 5 10
-5 0 -17 -5 -25 -10z"/>
<path d="M20960 31815 c-14 -8 -20 -14 -15 -14 6 0 21 6 35 14 14 8 21 14 15
14 -5 0 -21 -6 -35 -14z"/>
<path d="M20890 31785 c-14 -8 -20 -14 -15 -14 6 0 21 6 35 14 14 8 21 14 15
14 -5 0 -21 -6 -35 -14z"/>
<path d="M20810 31750 c-9 -6 -10 -10 -3 -10 6 0 15 5 18 10 8 12 4 12 -15 0z"/>
<path d="M20760 31730 c-8 -5 -10 -10 -5 -10 6 0 17 5 25 10 8 5 11 10 5 10
-5 0 -17 -5 -25 -10z"/>
<path d="M20690 31700 c-8 -5 -10 -10 -5 -10 6 0 17 5 25 10 8 5 11 10 5 10
-5 0 -17 -5 -25 -10z"/>
<path d="M20640 31680 c-8 -5 -10 -10 -5 -10 6 0 17 5 25 10 8 5 11 10 5 10
-5 0 -17 -5 -25 -10z"/>
<path d="M20338 31553 c-137 -58 -248 -110 -248 -116 0 -5 7 -4 15 3 12 10 18
10 30 0 13 -11 14 -10 10 2 -5 12 42 36 212 108 218 92 257 110 238 109 -5 0
-121 -48 -257 -106z"/>
<path d="M20990 31470 c-8 -5 -10 -10 -5 -10 6 0 17 5 25 10 8 5 11 10 5 10
-5 0 -17 -5 -25 -10z"/>
<path d="M20020 31418 c-25 -11 -47 -23 -50 -27 -3 -3 -9 -6 -15 -6 -26 0
-244 -99 -238 -108 3 -6 1 -7 -6 -3 -6 4 -87 -24 -179 -63 -277 -116 -322
-137 -314 -146 4 -4 2 -5 -5 -1 -16 9 -544 -214 -536 -227 3 -6 1 -7 -6 -3 -6
4 -289 -110 -644 -259 -348 -147 -879 -372 -1182 -500 -302 -128 -739 -312
-970 -410 -231 -97 -550 -233 -710 -300 -159 -68 -830 -351 -1490 -630 -660
-279 -1684 -712 -2275 -962 -591 -250 -1085 -459 -1098 -464 -22 -8 -21 -11
60 -173 l82 -164 25 13 c15 7 444 198 955 424 1658 736 3953 1728 5421 2343
407 170 862 361 1010 423 149 62 360 150 470 195 110 45 259 105 330 135 72
30 201 83 288 118 86 35 154 67 150 72 -5 4 -3 5 3 2 15 -8 127 37 117 47 -4
4 1 4 11 0 15 -6 17 -4 11 6 -5 8 -4 11 3 6 13 -8 223 74 217 85 -3 4 5 5 17
1 16 -4 19 -2 13 8 -5 8 -4 11 2 7 14 -9 294 104 287 115 -3 4 3 5 12 1 13 -5
15 -3 9 7 -5 9 -4 11 4 6 16 -10 102 24 94 37 -4 6 -1 7 6 3 17 -11 272 94
263 108 -3 6 -5 25 -3 43 3 43 -15 43 -57 2 -18 -17 -32 -27 -32 -23 0 5 -5 1
-11 -8 -20 -34 -29 -17 -29 52 0 62 -2 70 -19 70 -11 0 -38 -18 -60 -40 -22
-22 -43 -40 -46 -40 -10 0 -3 92 8 115 5 11 6 17 2 13 -4 -4 -14 0 -22 10 -12
16 -14 16 -27 -2 -8 -10 -20 -15 -26 -11 -7 5 -2 12 16 21 22 12 30 12 42 2
13 -11 15 -10 9 5 -6 17 -4 18 32 21 10 0 27 9 38 18 10 10 28 19 40 21 21 3
75 36 58 36 -5 -1 -30 -10 -55 -21z m-175 -128 c-3 -5 -13 -6 -22 -3 -9 4 -14
2 -10 -3 3 -6 -3 -11 -14 -11 -24 -2 -26 34 -1 40 22 5 54 -11 47 -23z m-171
-38 c3 -5 -1 -9 -9 -9 -8 0 -12 4 -9 9 3 4 7 8 9 8 2 0 6 -4 9 -8z m3 -37 c0
-8 -4 -15 -9 -15 -10 0 -11 14 -1 23 9 10 10 9 10 -8z m-182 -45 c-3 -5 -12
-10 -18 -10 -7 0 -6 4 3 10 19 12 23 12 15 0z m-75 -24 c0 -2 -7 -7 -16 -10
-8 -3 -12 -2 -9 4 6 10 25 14 25 6z m74 -5 c-8 -8 -43 -8 -38 0 2 4 13 7 24 6
10 -1 17 -3 14 -6z m-241 -81 c3 -11 1 -18 -4 -14 -5 3 -9 12 -9 20 0 20 7 17
13 -6z m361 -152 c-3 -4 -9 -8 -15 -8 -5 0 -9 4 -9 8 0 5 7 9 15 9 8 0 12 -4
9 -9z"/>
<path d="M20820 31400 c-9 -6 -10 -10 -3 -10 6 0 15 5 18 10 8 12 4 12 -15 0z"/>
<path d="M20770 31380 c-8 -5 -10 -10 -5 -10 6 0 17 5 25 10 8 5 11 10 5 10
-5 0 -17 -5 -25 -10z"/>
<path d="M20725 31360 c-3 -6 1 -7 9 -4 18 7 21 14 7 14 -6 0 -13 -4 -16 -10z"/>
<path d="M20510 31320 c-9 -6 -10 -10 -3 -10 6 0 15 5 18 10 8 12 4 12 -15 0z"/>
<path d="M20530 31280 c-8 -5 -10 -10 -5 -10 6 0 17 5 25 10 8 5 11 10 5 10
-5 0 -17 -5 -25 -10z"/>
<path d="M20471 31259 c-13 -5 -21 -12 -18 -15 3 -3 18 1 34 10 31 17 21 20
-16 5z"/>
<path d="M30020 31240 c-8 -5 -10 -10 -5 -10 6 0 17 5 25 10 8 5 11 10 5 10
-5 0 -17 -5 -25 -10z"/>
<path d="M20406 31231 c-4 -5 3 -7 14 -4 23 6 26 13 6 13 -8 0 -17 -4 -20 -9z"/>
<path d="M30050 31230 c-9 -6 -10 -10 -3 -10 6 0 15 5 18 10 8 12 4 12 -15 0z"/>
<path d="M20330 31203 c-79 -36 -95 -41 -104 -36 -5 3 -6 1 -2 -5 5 -8 20 -6
54 7 85 34 117 49 102 50 -8 0 -31 -7 -50 -16z"/>
<path d="M20186 31141 c-4 -5 3 -7 14 -4 23 6 26 13 6 13 -8 0 -17 -4 -20 -9z"/>
<path d="M23898 23003 c6 -2 18 -2 25 0 6 3 1 5 -13 5 -14 0 -19 -2 -12 -5z"/>
<path d="M23973 23003 c15 -2 39 -2 55 0 15 2 2 4 -28 4 -30 0 -43 -2 -27 -4z"/>
<path d="M23508 22993 c28 -2 76 -2 105 0 28 2 5 3 -53 3 -58 0 -81 -1 -52 -3z"/>
<path d="M18275 21416 c-293 -93 -682 -574 -1140 -1411 -257 -470 -614 -1229
-760 -1620 -124 -333 -263 -864 -311 -1195 -61 -419 -37 -724 76 -955 85 -174
124 -205 440 -351 460 -211 643 -270 1560 -499 426 -106 901 -227 1055 -268
154 -42 398 -105 541 -140 508 -127 730 -195 1304 -399 639 -227 1362 -501
2110 -800 314 -125 364 -148 327 -148 -39 0 -279 -86 -394 -140 -147 -70 -257
-141 -379 -243 -356 -299 -648 -806 -729 -1268 -19 -109 -19 -288 0 -381 32
-154 136 -317 250 -393 227 -150 555 -74 903 209 45 36 82 65 82 62 0 -3 -47
-87 -104 -188 -416 -737 -464 -824 -576 -1048 -324 -647 -481 -1205 -497
-1766 -12 -424 58 -728 222 -959 121 -170 375 -340 479 -321 67 13 136 118
136 209 0 55 -14 80 -85 158 -165 179 -275 403 -327 661 -29 148 -32 462 -5
633 89 563 285 1048 807 2005 234 428 433 819 514 1010 116 271 219 583 262
792 29 143 39 98 38 -180 -1 -312 -13 -432 -113 -1112 -45 -305 -62 -519 -68
-872 -6 -321 2 -495 33 -700 35 -243 100 -481 164 -609 155 -307 450 -542 786
-628 324 -83 626 -30 926 160 200 127 385 279 495 408 341 398 416 831 237
1370 -157 475 -545 1042 -1182 1731 -64 69 -294 312 -512 540 -415 434 -477
500 -466 500 13 0 619 -257 956 -405 1533 -675 2791 -1289 4085 -1995 149 -81
520 -279 825 -440 1163 -613 1608 -878 2118 -1258 l114 -84 41 18 c277 121
611 474 979 1034 156 237 223 350 305 515 221 443 386 994 567 1895 57 283 70
408 62 575 -7 153 -19 215 -81 434 -53 191 -94 299 -160 430 -103 207 -159
271 -288 334 -188 92 -468 136 -997 157 -323 12 -346 15 -860 95 -550 86 -810
136 -1025 196 -284 79 -654 169 -1085 264 -850 188 -1040 230 -1265 285 -288
70 -587 152 -825 227 -96 30 -191 59 -210 65 -114 33 -846 302 -863 317 -8 8
11 71 22 71 4 0 108 -38 232 -84 898 -335 1995 -621 3344 -871 1077 -200 1814
-248 2480 -164 87 11 170 26 183 33 21 11 7 14 -109 19 -166 8 -291 27 -529
78 -264 58 -446 96 -1045 219 -834 171 -1658 347 -1779 379 -61 16 -183 46
-271 66 -647 146 -1345 347 -1950 562 -132 47 -307 109 -390 138 l-150 51 -82
81 c-235 234 -723 458 -1368 628 -157 42 -198 42 -272 0 l-44 -24 -212 100
c-951 450 -2084 1114 -2882 1688 -302 217 -850 624 -945 702 -52 43 -155 127
-229 188 -74 61 -137 108 -140 105 -7 -7 -3 -10 285 -258 1174 -1011 2479
-1913 3829 -2650 l160 -87 -3 -60 c-2 -32 -6 -59 -10 -59 -3 0 -98 48 -211
107 -113 59 -348 177 -521 263 -348 173 -579 297 -865 463 -684 397 -1464 933
-2135 1467 -210 167 -406 300 -442 300 -27 0 -180 117 -548 419 -372 305 -716
627 -997 934 l-80 89 -22 -28 c-30 -39 -45 -96 -34 -130 7 -22 1 -50 -34 -148
-24 -67 -53 -157 -64 -201 -11 -44 -40 -132 -64 -195 -23 -63 -88 -263 -145
-445 -238 -770 -376 -1137 -569 -1511 -197 -379 -348 -592 -813 -1136 -318
-372 -470 -511 -595 -543 -62 -16 -99 -8 -137 29 -139 132 -123 646 45 1466
116 562 243 907 550 1491 217 412 384 694 630 1065 160 240 216 301 324 355
79 39 123 46 167 25 97 -46 100 -174 12 -536 -88 -359 -244 -757 -530 -1350
-57 -118 -104 -220 -104 -226 0 -7 8 -22 18 -34 26 -33 57 -19 86 38 13 26
106 191 207 367 322 564 533 1010 619 1310 114 400 87 689 -79 856 -83 82
-181 108 -286 75z m1049 -1271 c98 -132 204 -251 387 -430 260 -254 514 -462
989 -809 135 -99 376 -276 535 -395 679 -503 1162 -839 1711 -1188 544 -347
1146 -694 1566 -904 101 -50 185 -93 187 -95 2 -2 -14 -43 -37 -91 -59 -128
-110 -270 -186 -513 -98 -317 -134 -412 -282 -744 -138 -309 -235 -498 -332
-645 -58 -89 -175 -233 -234 -289 l-34 -33 -160 72 c-980 437 -1652 705 -2754
1099 -1022 365 -1268 440 -1805 550 -137 28 -488 105 -780 171 -291 66 -596
132 -677 147 -82 15 -148 29 -148 32 1 3 21 21 46 40 25 19 94 85 154 147 368
381 618 809 1087 1863 348 781 553 1402 643 1950 11 69 23 141 26 160 l6 35
17 -25 c9 -13 43 -61 75 -105z m7464 -4744 c1221 -458 2431 -775 3682 -962 91
-13 349 -73 695 -159 847 -213 1573 -371 1855 -404 221 -27 448 -46 464 -40
19 7 126 -20 177 -47 103 -52 190 -182 232 -347 19 -78 22 -112 22 -322 0
-142 -5 -268 -13 -320 -93 -613 -315 -1276 -648 -1940 -319 -634 -626 -1040
-898 -1184 -38 -20 -63 -26 -113 -26 -139 0 -457 171 -890 477 -207 146 -494
310 -1203 685 -872 462 -1631 838 -3475 1723 -781 374 -1397 671 -1785 861
l-144 70 64 39 c174 104 286 201 628 539 362 359 504 520 716 819 99 140 260
394 342 539 27 49 50 88 52 88 2 0 110 -40 240 -89z m-3243 -2387 c-126 -397
-192 -565 -291 -745 -143 -258 -360 -481 -575 -588 -127 -64 -206 -54 -229 27
-25 93 2 260 81 497 61 182 112 292 183 399 157 236 386 421 740 601 93 47
171 83 173 81 2 -2 -34 -125 -82 -272z m1274 -598 c583 -662 771 -909 1023
-1351 181 -315 283 -540 332 -728 73 -281 57 -507 -53 -726 -135 -267 -450
-531 -719 -603 -100 -26 -252 -28 -342 -4 -401 108 -723 600 -782 1193 -15
153 -7 253 66 818 87 668 111 920 122 1260 6 181 -7 505 -22 553 -6 19 2 10
375 -412z"/>
<path d="M12741 17214 c0 -11 3 -14 6 -6 3 7 2 16 -1 19 -3 4 -6 -2 -5 -13z"/>
</g>
</svg>
