<svg id="svg" version="1.1" xmlns="http://www.w3.org/2000/svg" xmlns:xlink="http://www.w3.org/1999/xlink" width="400" height="400" viewBox="0, 0, 400,400"><g id="svgg"><path id="path0" d="M0.000 200.000 L 0.000 400.000 200.000 400.000 L 400.000 400.000 400.000 200.000 L 400.000 0.000 200.000 0.000 L 0.000 0.000 0.000 200.000 M186.322 101.263 C 187.575 101.958,189.271 102.948,190.092 103.463 C 190.913 103.978,191.675 104.400,191.785 104.400 C 191.896 104.400,193.162 105.120,194.600 106.000 C 196.038 106.880,197.298 107.600,197.400 107.600 C 197.502 107.600,198.762 108.320,200.200 109.200 C 201.638 110.080,202.898 110.800,203.000 110.800 C 203.102 110.800,204.362 111.520,205.800 112.400 C 207.238 113.280,208.498 114.000,208.600 114.000 C 208.702 114.000,209.962 114.720,211.400 115.600 C 212.838 116.480,214.098 117.200,214.200 117.200 C 214.302 117.200,215.562 117.920,217.000 118.800 C 218.438 119.680,219.698 120.400,219.800 120.400 C 219.902 120.400,221.162 121.120,222.600 122.000 C 224.038 122.880,225.298 123.600,225.400 123.600 C 225.502 123.600,226.762 124.320,228.200 125.200 C 229.638 126.080,230.898 126.800,231.000 126.800 C 231.102 126.800,232.362 127.520,233.800 128.400 C 235.238 129.280,236.498 130.000,236.600 130.000 C 236.702 130.000,237.962 130.720,239.400 131.600 C 240.838 132.480,242.098 133.200,242.200 133.200 C 242.302 133.200,243.562 133.920,245.000 134.800 C 246.438 135.680,247.698 136.400,247.800 136.400 C 247.902 136.400,249.162 137.120,250.600 138.000 C 252.038 138.880,253.298 139.600,253.400 139.600 C 253.502 139.600,254.762 140.320,256.200 141.200 C 257.638 142.080,258.898 142.800,259.000 142.800 C 259.102 142.800,260.362 143.520,261.800 144.400 C 263.238 145.280,264.504 146.000,264.615 146.000 C 264.725 146.000,265.487 146.421,266.308 146.936 C 267.129 147.451,268.610 148.325,269.600 148.877 C 284.537 157.212,284.400 157.097,284.400 161.350 C 284.400 164.678,284.003 165.120,280.600 165.578 C 279.060 165.785,276.000 166.257,273.800 166.628 C 271.600 166.998,268.810 167.432,267.600 167.592 C 264.960 167.943,260.155 168.700,257.400 169.200 C 255.159 169.607,250.522 170.344,247.200 170.823 C 245.147 171.118,242.819 171.488,233.200 173.045 C 231.110 173.384,228.410 173.803,227.200 173.977 C 223.878 174.456,219.241 175.193,217.000 175.600 C 214.759 176.007,210.122 176.744,206.800 177.223 C 205.590 177.397,202.800 177.831,200.600 178.189 C 198.400 178.546,194.840 179.096,192.689 179.411 C 186.799 180.273,187.200 179.707,187.200 187.155 C 187.200 199.185,187.126 199.032,192.445 197.970 C 193.630 197.733,195.680 197.378,197.000 197.181 C 199.468 196.813,203.355 196.160,210.000 195.000 C 212.090 194.635,214.700 194.192,215.800 194.016 C 217.647 193.720,220.140 193.300,229.200 191.756 C 231.070 191.438,233.680 191.007,235.000 190.800 C 237.631 190.386,242.128 189.625,248.000 188.600 C 250.090 188.235,252.700 187.792,253.800 187.616 C 257.525 187.019,263.384 186.035,267.000 185.397 C 268.980 185.048,271.680 184.608,273.000 184.419 C 274.320 184.230,276.210 183.893,277.200 183.670 C 278.190 183.447,280.080 183.205,281.400 183.132 L 283.800 183.000 283.918 186.162 C 284.061 189.990,284.233 189.804,279.800 190.598 C 277.820 190.953,275.300 191.411,274.200 191.615 C 272.028 192.020,267.575 192.789,261.600 193.792 C 259.510 194.143,256.900 194.593,255.800 194.793 C 253.673 195.179,249.404 195.921,243.200 196.984 C 241.110 197.343,238.500 197.802,237.400 198.006 C 236.300 198.209,234.680 198.477,233.800 198.601 C 232.920 198.725,231.390 198.989,230.400 199.189 C 229.410 199.388,226.890 199.841,224.800 200.194 C 222.710 200.547,220.100 200.999,219.000 201.198 C 217.900 201.398,215.290 201.847,213.200 202.197 C 211.110 202.547,207.870 203.100,206.000 203.426 C 204.130 203.752,201.610 204.190,200.400 204.400 C 193.288 205.634,190.678 206.097,187.892 206.618 C 183.331 207.472,183.316 207.468,179.800 204.488 C 175.919 201.199,167.311 193.999,164.631 191.800 C 163.559 190.920,162.483 190.018,162.241 189.796 C 161.998 189.573,160.721 188.493,159.403 187.396 C 158.084 186.298,156.803 185.220,156.556 185.000 C 156.309 184.780,155.671 184.240,155.140 183.800 C 152.945 181.984,149.370 178.982,148.953 178.604 C 148.707 178.382,148.071 177.840,147.540 177.400 C 147.008 176.960,145.500 175.700,144.190 174.600 C 142.879 173.500,141.445 172.303,141.003 171.940 C 140.562 171.577,139.382 170.587,138.383 169.740 C 137.384 168.893,135.674 167.453,134.583 166.539 C 133.492 165.625,125.715 159.087,117.300 152.009 L 102.000 139.141 102.000 125.994 C 102.000 117.392,102.143 112.759,102.413 112.592 C 102.791 112.358,106.446 111.756,113.273 110.802 C 114.744 110.597,116.364 110.329,116.873 110.206 C 117.383 110.084,119.060 109.808,120.600 109.592 C 122.140 109.377,125.110 108.925,127.200 108.587 C 129.290 108.249,132.260 107.812,133.800 107.615 C 135.340 107.418,136.870 107.159,137.200 107.039 C 137.530 106.919,139.150 106.644,140.800 106.428 C 142.450 106.212,145.600 105.752,147.800 105.405 C 150.000 105.058,152.880 104.618,154.200 104.427 C 155.520 104.237,157.860 103.881,159.400 103.637 C 160.940 103.394,163.280 103.027,164.600 102.821 C 170.048 101.974,175.176 101.132,178.000 100.621 C 182.709 99.769,183.775 99.851,186.322 101.263 M104.934 151.100 C 105.914 151.925,107.839 153.500,109.211 154.600 C 110.583 155.700,111.907 156.780,112.153 157.000 C 112.399 157.220,113.950 158.480,115.600 159.799 C 117.250 161.119,118.690 162.289,118.800 162.399 C 118.910 162.510,120.080 163.496,121.400 164.591 C 122.720 165.686,123.890 166.687,124.000 166.814 C 124.110 166.942,124.577 167.306,125.037 167.623 C 125.825 168.166,129.193 170.916,130.159 171.806 C 130.402 172.029,131.410 172.834,132.400 173.595 C 133.390 174.357,134.290 175.074,134.400 175.190 C 134.575 175.374,139.693 179.557,141.752 181.200 C 142.166 181.530,143.257 182.430,144.177 183.200 C 145.096 183.970,146.635 185.230,147.595 186.000 C 148.555 186.770,149.998 187.940,150.800 188.600 C 151.602 189.260,153.039 190.430,153.991 191.200 C 156.890 193.543,167.734 202.430,168.808 203.343 C 169.362 203.814,171.162 205.277,172.808 206.593 C 174.453 207.910,176.160 209.294,176.600 209.671 C 183.001 215.142,182.367 214.845,186.200 214.172 C 187.960 213.863,190.546 213.426,191.946 213.200 C 193.347 212.975,194.644 212.696,194.830 212.582 C 195.015 212.467,196.300 212.208,197.684 212.007 C 199.068 211.806,201.640 211.364,203.400 211.026 C 205.160 210.687,207.746 210.226,209.146 210.000 C 210.547 209.775,211.840 209.499,212.020 209.387 C 212.201 209.276,213.575 209.007,215.074 208.790 C 216.573 208.573,219.240 208.117,221.000 207.777 C 222.760 207.437,225.332 206.994,226.716 206.793 C 228.100 206.592,229.385 206.333,229.570 206.218 C 229.756 206.104,231.053 205.828,232.454 205.606 C 233.854 205.383,236.440 204.934,238.200 204.606 C 239.960 204.279,242.546 203.826,243.946 203.600 C 245.347 203.375,246.631 203.105,246.800 203.000 C 246.969 202.895,248.253 202.628,249.654 202.406 C 251.054 202.183,253.640 201.734,255.400 201.406 C 257.160 201.079,259.746 200.626,261.146 200.400 C 262.547 200.175,263.840 199.899,264.020 199.787 C 264.201 199.676,265.575 199.410,267.074 199.196 C 268.573 198.983,271.150 198.536,272.800 198.203 C 274.450 197.870,276.880 197.422,278.200 197.207 C 279.520 196.993,281.185 196.646,281.899 196.437 C 283.817 195.875,284.400 196.654,284.400 199.780 C 284.400 202.923,283.928 203.279,278.600 204.160 C 277.940 204.269,276.140 204.618,274.600 204.935 C 273.060 205.253,271.170 205.633,270.400 205.780 C 269.630 205.928,267.830 206.299,266.400 206.605 C 264.970 206.912,262.720 207.372,261.400 207.629 C 260.080 207.885,257.920 208.321,256.600 208.599 C 250.642 209.851,247.980 210.403,245.000 211.003 C 243.240 211.357,241.080 211.802,240.200 211.991 C 239.320 212.180,237.070 212.637,235.200 213.007 C 233.330 213.378,230.720 213.911,229.400 214.193 C 228.080 214.475,225.920 214.922,224.600 215.187 C 223.280 215.453,220.940 215.928,219.400 216.244 C 217.860 216.560,215.790 216.981,214.800 217.179 C 213.810 217.378,211.560 217.839,209.800 218.203 C 205.046 219.187,201.686 219.873,199.000 220.411 C 197.680 220.675,195.550 221.140,194.268 221.445 C 192.985 221.750,191.522 222.000,191.017 222.000 C 189.201 222.000,189.086 222.631,189.401 230.828 C 189.723 239.187,189.747 239.256,192.095 238.413 C 192.813 238.156,194.210 237.788,195.200 237.596 C 196.190 237.405,198.170 236.956,199.600 236.600 C 201.030 236.244,203.055 235.794,204.099 235.600 C 205.143 235.407,206.179 235.137,206.400 235.000 C 206.621 234.863,207.657 234.593,208.701 234.400 C 209.745 234.206,211.770 233.756,213.200 233.400 C 214.630 233.044,216.655 232.594,217.699 232.400 C 218.743 232.207,219.779 231.937,220.000 231.800 C 220.221 231.663,221.257 231.393,222.301 231.200 C 223.345 231.006,225.370 230.556,226.800 230.200 C 228.230 229.844,230.255 229.394,231.299 229.200 C 232.343 229.007,233.379 228.737,233.600 228.600 C 233.821 228.463,234.857 228.193,235.901 228.000 C 236.945 227.806,238.970 227.356,240.400 227.000 C 241.830 226.644,243.855 226.194,244.899 226.000 C 245.943 225.807,246.979 225.537,247.200 225.400 C 247.421 225.263,248.457 224.993,249.501 224.800 C 250.545 224.606,252.570 224.156,254.000 223.800 C 255.430 223.444,257.455 222.994,258.499 222.800 C 259.543 222.607,260.579 222.337,260.800 222.200 C 261.021 222.063,262.057 221.793,263.101 221.600 C 264.145 221.406,266.170 220.956,267.600 220.598 C 269.030 220.241,270.920 219.804,271.800 219.627 C 273.822 219.220,277.035 218.439,278.619 217.969 C 283.548 216.506,284.258 216.856,284.331 220.786 C 284.395 224.258,284.535 224.147,278.000 225.809 C 276.570 226.173,274.410 226.733,273.200 227.054 C 271.990 227.375,270.370 227.795,269.600 227.987 C 268.830 228.179,267.030 228.635,265.600 229.000 C 264.170 229.365,262.370 229.821,261.600 230.013 C 259.938 230.427,256.507 231.335,254.000 232.024 C 253.010 232.296,251.570 232.662,250.800 232.837 C 250.030 233.013,248.230 233.446,246.800 233.799 C 245.370 234.153,243.432 234.608,242.494 234.810 C 241.556 235.012,240.443 235.363,240.021 235.589 C 239.598 235.815,238.849 236.000,238.355 236.000 C 237.861 236.000,236.904 236.174,236.228 236.387 C 235.016 236.769,233.081 237.289,228.000 238.600 C 226.570 238.969,224.410 239.533,223.200 239.854 C 221.990 240.175,220.370 240.595,219.600 240.787 C 218.830 240.979,217.030 241.435,215.600 241.800 C 214.170 242.165,212.370 242.621,211.600 242.813 C 210.830 243.005,209.210 243.425,208.000 243.746 C 206.050 244.263,204.478 244.670,199.200 246.022 C 198.430 246.220,196.630 246.669,195.200 247.020 C 193.770 247.371,191.700 247.902,190.600 248.199 C 186.157 249.401,185.117 249.263,183.200 247.214 C 183.090 247.096,182.190 246.337,181.200 245.527 C 180.210 244.718,178.891 243.604,178.269 243.054 C 177.646 242.503,176.393 241.456,175.483 240.726 C 174.573 239.997,173.192 238.844,172.414 238.164 C 171.636 237.485,170.550 236.555,170.000 236.099 C 167.198 233.773,160.386 228.128,158.841 226.852 C 157.873 226.054,156.882 225.220,156.638 225.000 C 156.394 224.780,155.116 223.702,153.797 222.604 C 152.479 221.507,151.202 220.427,150.959 220.204 C 150.717 219.982,149.727 219.142,148.759 218.338 C 147.792 217.534,146.586 216.515,146.081 216.074 C 145.575 215.633,144.418 214.671,143.510 213.936 C 142.030 212.738,140.647 211.588,138.200 209.521 C 131.131 203.549,118.219 192.744,115.600 190.608 C 113.730 189.083,112.020 187.634,111.800 187.387 C 111.580 187.140,109.508 185.403,107.195 183.525 C 104.883 181.648,102.725 179.791,102.399 179.399 C 101.832 178.715,101.703 150.815,102.263 149.900 C 102.601 149.348,103.139 149.590,104.934 151.100 M111.530 195.900 C 115.451 199.145,119.441 202.430,120.396 203.200 C 121.350 203.970,122.327 204.782,122.566 205.004 C 123.044 205.448,129.297 210.623,131.909 212.736 C 132.818 213.471,133.975 214.432,134.481 214.870 C 134.986 215.309,137.090 217.048,139.155 218.734 C 141.221 220.420,145.730 224.140,149.177 227.000 C 152.623 229.860,157.863 234.203,160.821 236.651 C 163.780 239.099,168.558 243.059,171.441 245.451 C 174.324 247.843,177.460 250.430,178.412 251.200 C 179.363 251.970,180.846 253.185,181.708 253.900 C 183.792 255.628,181.748 255.953,203.000 250.522 C 204.320 250.185,206.030 249.769,206.800 249.597 C 207.570 249.426,217.920 246.824,229.800 243.816 C 241.680 240.807,259.925 236.203,270.345 233.584 C 280.765 230.965,289.540 228.616,289.845 228.362 C 290.280 228.001,290.400 226.360,290.400 220.751 C 290.400 216.818,290.510 213.600,290.645 213.600 C 290.999 213.600,295.379 216.010,298.400 217.867 C 299.830 218.746,301.900 219.965,303.000 220.574 C 304.100 221.184,306.890 222.815,309.200 224.198 C 311.510 225.582,315.200 227.780,317.400 229.083 L 321.400 231.452 321.700 237.626 C 321.865 241.022,321.955 250.550,321.900 258.800 L 321.800 273.800 312.800 278.248 C 307.850 280.694,303.391 282.823,302.890 282.978 L 301.980 283.260 302.090 276.559 L 302.200 269.858 307.400 267.502 C 310.260 266.207,313.163 264.895,313.851 264.588 C 314.540 264.281,315.215 263.738,315.351 263.382 C 315.836 262.119,315.635 239.200,315.139 239.200 C 314.751 239.200,308.108 241.602,302.200 243.879 C 301.320 244.218,300.240 244.633,299.800 244.800 C 299.360 244.967,298.280 245.382,297.400 245.723 C 296.520 246.063,291.840 247.811,287.000 249.609 C 282.160 251.406,277.660 253.112,277.000 253.399 C 276.340 253.686,274.990 254.191,274.000 254.522 C 273.010 254.853,271.750 255.302,271.200 255.518 C 268.367 256.635,266.079 257.500,255.600 261.413 C 249.330 263.755,243.030 266.125,241.600 266.679 C 238.090 268.041,238.014 268.070,223.200 273.603 C 216.050 276.274,209.480 278.737,208.600 279.077 C 207.720 279.418,206.640 279.833,206.200 280.000 C 205.760 280.167,204.680 280.582,203.800 280.922 C 199.117 282.731,195.465 284.000,194.942 284.000 C 194.617 284.000,189.368 280.965,183.276 277.256 C 154.030 259.450,144.096 253.419,142.911 252.751 C 142.201 252.352,136.302 248.774,129.800 244.800 C 123.298 240.826,117.361 237.228,116.607 236.804 C 115.852 236.380,109.962 232.808,103.517 228.865 C 97.073 224.923,91.080 221.294,90.200 220.801 C 89.320 220.308,85.225 217.840,81.100 215.316 L 73.600 210.727 73.600 206.187 C 73.600 202.992,73.748 201.553,74.100 201.329 C 74.630 200.991,87.355 196.010,90.400 194.948 C 91.390 194.603,92.740 194.093,93.400 193.815 C 94.780 193.233,97.483 192.177,99.800 191.314 C 100.680 190.987,101.670 190.567,102.000 190.383 C 103.532 189.526,104.515 190.095,111.530 195.900 M83.239 235.137 C 88.168 238.403,96.520 243.923,101.800 247.404 C 107.080 250.885,116.080 256.824,121.800 260.601 C 132.357 267.571,145.480 276.231,161.400 286.731 C 166.240 289.923,175.690 296.162,182.400 300.595 C 189.110 305.028,194.828 308.790,195.107 308.955 C 195.518 309.199,205.694 305.558,219.800 300.121 C 220.680 299.782,221.760 299.367,222.200 299.200 C 222.640 299.033,223.720 298.618,224.600 298.277 C 225.480 297.937,230.160 296.190,235.000 294.394 C 239.840 292.598,244.970 290.675,246.400 290.120 C 249.589 288.884,250.246 288.637,258.000 285.765 C 261.410 284.501,264.406 283.311,264.658 283.120 C 266.156 281.981,267.284 291.222,266.045 294.482 C 265.609 295.628,265.893 295.489,254.400 300.209 C 249.230 302.332,244.640 304.222,244.200 304.408 C 243.760 304.594,242.770 305.014,242.000 305.341 C 241.230 305.668,236.370 307.674,231.200 309.798 C 226.030 311.922,221.440 313.814,221.000 314.003 C 218.119 315.239,216.535 315.896,209.000 318.986 C 199.881 322.724,198.950 323.116,197.905 323.647 C 197.523 323.841,196.849 324.000,196.406 324.000 C 195.964 324.000,177.737 312.060,155.901 297.467 C 134.065 282.874,106.702 264.586,95.093 256.828 C 83.484 249.070,73.809 242.391,73.593 241.987 C 73.157 241.173,73.043 229.890,73.467 229.467 C 73.940 228.993,74.153 229.117,83.239 235.137 M299.607 263.700 C 299.698 270.473,299.537 306.996,299.416 307.117 C 299.220 307.313,287.891 299.032,287.175 298.170 C 286.333 297.156,285.433 297.560,283.767 299.702 C 279.901 304.670,271.702 315.134,270.600 316.506 C 269.940 317.328,269.263 318.000,269.097 318.000 C 268.930 318.000,268.840 308.152,268.897 296.115 L 269.000 274.231 270.000 273.749 C 270.550 273.484,271.720 272.995,272.600 272.663 C 274.128 272.087,275.123 271.731,283.400 268.794 C 285.380 268.092,287.360 267.375,287.800 267.201 C 288.240 267.027,289.500 266.581,290.600 266.209 C 291.700 265.837,292.870 265.432,293.200 265.308 C 293.530 265.184,294.880 264.676,296.200 264.180 C 299.043 263.111,299.598 263.033,299.607 263.700 " stroke="none" fill="#eeeff1" fill-rule="evenodd"></path><path id="path1" d="M181.400 100.817 C 180.740 101.007,178.850 101.342,177.200 101.563 C 175.550 101.784,172.400 102.248,170.200 102.594 C 168.000 102.941,164.947 103.399,163.417 103.612 C 161.886 103.825,160.327 104.096,159.953 104.215 C 159.579 104.334,157.952 104.602,156.337 104.812 C 154.722 105.022,151.690 105.470,149.600 105.808 C 147.510 106.145,144.597 106.590,143.127 106.797 C 141.656 107.003,140.036 107.271,139.527 107.394 C 139.017 107.516,137.340 107.785,135.800 107.991 C 131.332 108.589,127.570 109.150,125.200 109.570 C 123.990 109.785,121.020 110.249,118.600 110.602 C 116.180 110.955,113.300 111.412,112.200 111.618 C 111.100 111.824,108.908 112.174,107.328 112.395 C 105.748 112.617,103.993 112.974,103.428 113.189 L 102.400 113.580 102.400 126.021 L 102.400 138.462 103.513 139.531 C 104.757 140.726,105.454 141.323,110.600 145.603 C 112.580 147.250,114.290 148.702,114.400 148.830 C 114.510 148.958,116.220 150.377,118.200 151.984 C 120.180 153.591,121.890 155.020,122.000 155.160 C 122.110 155.300,123.730 156.660,125.600 158.183 C 127.470 159.707,129.090 161.054,129.200 161.176 C 129.310 161.299,130.478 162.300,131.797 163.400 C 135.717 166.671,136.086 166.982,136.556 167.400 C 137.014 167.808,141.139 171.263,142.597 172.460 C 143.038 172.823,144.218 173.813,145.217 174.660 C 146.216 175.507,147.926 176.950,149.017 177.868 C 150.108 178.785,153.520 181.660,156.600 184.257 C 159.680 186.854,162.560 189.280,163.000 189.648 C 163.440 190.016,167.850 193.722,172.800 197.884 C 184.357 207.600,183.071 206.854,187.000 206.124 C 192.763 205.055,197.911 204.150,204.800 202.997 C 206.890 202.647,209.500 202.192,210.600 201.987 C 212.863 201.563,217.598 200.746,223.200 199.813 C 225.290 199.464,227.810 199.013,228.800 198.811 C 229.790 198.608,231.410 198.333,232.400 198.200 C 233.390 198.067,235.010 197.792,236.000 197.589 C 236.990 197.387,239.510 196.941,241.600 196.600 C 243.690 196.259,246.210 195.813,247.200 195.611 C 248.190 195.408,249.810 195.133,250.800 195.000 C 251.790 194.867,253.410 194.592,254.400 194.389 C 255.390 194.187,257.910 193.739,260.000 193.395 C 262.090 193.051,264.700 192.593,265.800 192.378 C 266.900 192.162,268.970 191.800,270.400 191.572 C 280.132 190.022,282.980 189.457,283.294 189.015 C 283.456 188.787,283.591 187.453,283.594 186.050 L 283.600 183.501 281.500 183.727 C 280.345 183.851,277.870 184.221,276.000 184.549 C 270.566 185.502,265.205 186.399,262.400 186.824 C 260.970 187.040,259.530 187.300,259.200 187.400 C 258.870 187.500,257.430 187.760,256.000 187.976 C 254.570 188.193,251.690 188.663,249.600 189.021 C 247.510 189.378,244.810 189.829,243.600 190.022 C 242.390 190.215,239.870 190.637,238.000 190.959 C 231.431 192.092,226.975 192.834,224.400 193.224 C 222.970 193.440,221.523 193.704,221.183 193.809 C 220.844 193.915,219.314 194.180,217.783 194.398 C 214.859 194.814,211.677 195.328,208.000 195.976 C 206.790 196.189,204.090 196.649,202.000 196.997 C 199.910 197.345,197.300 197.794,196.200 197.995 C 190.274 199.076,188.116 199.395,187.512 199.278 C 186.896 199.160,186.198 182.447,186.729 180.537 C 186.931 179.807,188.644 179.328,193.600 178.612 C 196.130 178.246,199.100 177.778,200.200 177.571 C 201.300 177.364,203.460 177.016,205.000 176.798 C 206.540 176.579,209.510 176.126,211.600 175.790 C 213.690 175.453,216.653 175.003,218.183 174.790 C 219.714 174.576,221.252 174.311,221.600 174.200 C 221.948 174.089,223.486 173.825,225.017 173.612 C 226.547 173.399,229.510 172.955,231.600 172.626 C 233.690 172.297,236.480 171.858,237.800 171.651 C 239.120 171.443,241.370 171.085,242.800 170.855 C 244.230 170.625,246.030 170.341,246.800 170.224 C 247.570 170.107,249.910 169.733,252.000 169.393 C 254.090 169.053,257.053 168.601,258.583 168.388 C 260.114 168.175,261.652 167.911,262.000 167.800 C 262.348 167.689,263.886 167.425,265.417 167.212 C 266.947 166.999,270.000 166.541,272.200 166.194 C 274.400 165.848,277.533 165.384,279.162 165.163 C 283.572 164.566,283.600 164.539,283.600 160.833 L 283.600 157.694 281.171 156.247 C 279.836 155.451,278.669 154.800,278.578 154.800 C 278.488 154.800,277.238 154.080,275.800 153.200 C 274.362 152.320,273.102 151.600,273.000 151.600 C 272.898 151.600,271.638 150.880,270.200 150.000 C 268.762 149.120,267.502 148.400,267.400 148.400 C 267.298 148.400,266.038 147.680,264.600 146.800 C 263.162 145.920,261.896 145.200,261.785 145.200 C 261.675 145.200,260.913 144.778,260.092 144.263 C 259.271 143.748,257.610 142.774,256.400 142.099 C 255.190 141.424,252.152 139.686,249.650 138.236 C 247.147 136.786,245.028 135.600,244.942 135.600 C 244.855 135.600,244.113 135.179,243.292 134.664 C 242.471 134.149,240.990 133.274,240.000 132.720 C 239.010 132.167,232.170 128.244,224.800 124.004 C 217.430 119.764,210.680 115.896,209.800 115.409 C 208.920 114.923,205.140 112.761,201.400 110.606 C 197.660 108.450,193.610 106.151,192.400 105.497 C 191.190 104.842,189.750 103.991,189.200 103.604 C 187.636 102.506,183.535 100.396,183.044 100.436 C 182.800 100.456,182.060 100.627,181.400 100.817 " stroke="none" fill="#1dbcdb" fill-rule="evenodd"></path><path id="path2" d="M102.000 190.383 C 101.670 190.567,100.680 190.987,99.800 191.314 C 97.483 192.177,94.780 193.233,93.400 193.815 C 92.740 194.093,91.390 194.603,90.400 194.948 C 87.355 196.010,74.630 200.991,74.100 201.329 C 73.748 201.553,73.600 202.992,73.600 206.187 L 73.600 210.727 81.100 215.316 C 85.225 217.840,89.320 220.308,90.200 220.801 C 91.080 221.294,97.073 224.923,103.517 228.865 C 109.962 232.808,115.852 236.380,116.607 236.804 C 117.361 237.228,123.298 240.826,129.800 244.800 C 136.302 248.774,142.201 252.352,142.911 252.751 C 144.096 253.419,154.030 259.450,183.276 277.256 C 189.368 280.965,194.617 284.000,194.942 284.000 C 195.465 284.000,199.117 282.731,203.800 280.922 C 204.680 280.582,205.760 280.167,206.200 280.000 C 206.640 279.833,207.720 279.418,208.600 279.077 C 209.480 278.737,216.050 276.274,223.200 273.603 C 238.014 268.070,238.090 268.041,241.600 266.679 C 243.030 266.125,249.330 263.755,255.600 261.413 C 266.079 257.500,268.367 256.635,271.200 255.518 C 271.750 255.302,273.010 254.853,274.000 254.522 C 274.990 254.191,276.340 253.686,277.000 253.399 C 277.660 253.112,282.160 251.406,287.000 249.609 C 291.840 247.811,296.520 246.063,297.400 245.723 C 298.280 245.382,299.360 244.967,299.800 244.800 C 300.240 244.633,301.320 244.218,302.200 243.879 C 308.108 241.602,314.751 239.200,315.139 239.200 C 315.635 239.200,315.836 262.119,315.351 263.382 C 315.215 263.738,314.540 264.281,313.851 264.588 C 313.163 264.895,310.260 266.207,307.400 267.502 L 302.200 269.858 302.090 276.559 L 301.980 283.260 302.890 282.978 C 303.391 282.823,307.850 280.694,312.800 278.248 L 321.800 273.800 321.900 258.800 C 321.955 250.550,321.865 241.022,321.700 237.626 L 321.400 231.452 317.400 229.083 C 315.200 227.780,311.510 225.582,309.200 224.198 C 306.890 222.815,304.100 221.184,303.000 220.574 C 301.900 219.965,299.830 218.746,298.400 217.867 C 295.379 216.010,290.999 213.600,290.645 213.600 C 290.510 213.600,290.400 216.818,290.400 220.751 C 290.400 226.360,290.280 228.001,289.845 228.362 C 289.540 228.616,280.765 230.965,270.345 233.584 C 259.925 236.203,241.680 240.807,229.800 243.816 C 217.920 246.824,207.570 249.426,206.800 249.597 C 206.030 249.769,204.320 250.185,203.000 250.522 C 181.748 255.953,183.792 255.628,181.708 253.900 C 180.846 253.185,179.363 251.970,178.412 251.200 C 177.460 250.430,174.324 247.843,171.441 245.451 C 168.558 243.059,163.780 239.099,160.821 236.651 C 157.863 234.203,152.623 229.860,149.177 227.000 C 145.730 224.140,141.221 220.420,139.155 218.734 C 137.090 217.048,134.986 215.309,134.481 214.870 C 133.975 214.432,132.818 213.471,131.909 212.736 C 129.297 210.623,123.044 205.448,122.566 205.004 C 122.327 204.782,121.350 203.970,120.396 203.200 C 119.441 202.430,115.451 199.145,111.530 195.900 C 104.515 190.095,103.532 189.526,102.000 190.383 M73.467 229.467 C 73.043 229.890,73.157 241.173,73.593 241.987 C 73.809 242.391,83.484 249.070,95.093 256.828 C 106.702 264.586,134.065 282.874,155.901 297.467 C 177.737 312.060,195.964 324.000,196.406 324.000 C 196.849 324.000,197.523 323.841,197.905 323.647 C 198.950 323.116,199.881 322.724,209.000 318.986 C 216.535 315.896,218.119 315.239,221.000 314.003 C 221.440 313.814,226.030 311.922,231.200 309.798 C 236.370 307.674,241.230 305.668,242.000 305.341 C 242.770 305.014,243.760 304.594,244.200 304.408 C 244.640 304.222,249.230 302.332,254.400 300.209 C 265.893 295.489,265.609 295.628,266.045 294.482 C 267.284 291.222,266.156 281.981,264.658 283.120 C 264.406 283.311,261.410 284.501,258.000 285.765 C 250.246 288.637,249.589 288.884,246.400 290.120 C 244.970 290.675,239.840 292.598,235.000 294.394 C 230.160 296.190,225.480 297.937,224.600 298.277 C 223.720 298.618,222.640 299.033,222.200 299.200 C 221.760 299.367,220.680 299.782,219.800 300.121 C 205.694 305.558,195.518 309.199,195.107 308.955 C 194.828 308.790,189.110 305.028,182.400 300.595 C 175.690 296.162,166.240 289.923,161.400 286.731 C 145.480 276.231,132.357 267.571,121.800 260.601 C 116.080 256.824,107.080 250.885,101.800 247.404 C 96.520 243.923,88.168 238.403,83.239 235.137 C 74.153 229.117,73.940 228.993,73.467 229.467 M296.200 264.180 C 294.880 264.676,293.530 265.184,293.200 265.308 C 292.870 265.432,291.700 265.837,290.600 266.209 C 289.500 266.581,288.240 267.027,287.800 267.201 C 287.360 267.375,285.380 268.092,283.400 268.794 C 275.123 271.731,274.128 272.087,272.600 272.663 C 271.720 272.995,270.550 273.484,270.000 273.749 L 269.000 274.231 268.897 296.115 C 268.840 308.152,268.930 318.000,269.097 318.000 C 269.263 318.000,269.940 317.328,270.600 316.506 C 271.702 315.134,279.901 304.670,283.767 299.702 C 285.433 297.560,286.333 297.156,287.175 298.170 C 287.891 299.032,299.220 307.313,299.416 307.117 C 299.537 306.996,299.698 270.473,299.607 263.700 C 299.598 263.033,299.043 263.111,296.200 264.180 " stroke="none" fill="#f46921" fill-rule="evenodd"></path><path id="path3" d="M102.582 150.902 C 102.476 151.179,102.437 157.611,102.495 165.195 L 102.600 178.986 106.600 182.332 C 108.800 184.173,111.397 186.336,112.371 187.139 C 113.345 187.943,119.320 192.955,125.650 198.278 C 131.980 203.601,139.913 210.243,143.280 213.039 C 146.646 215.834,150.300 218.883,151.400 219.815 C 156.272 223.942,171.929 237.061,177.400 241.602 C 180.700 244.340,183.848 246.990,184.396 247.490 C 185.624 248.612,186.611 248.625,190.636 247.573 C 201.481 244.736,206.407 243.482,207.927 243.169 C 208.876 242.974,209.809 242.718,210.000 242.600 C 210.191 242.482,211.124 242.223,212.073 242.025 C 213.023 241.826,216.950 240.853,220.800 239.863 C 224.650 238.872,231.310 237.160,235.600 236.057 C 239.890 234.954,247.360 233.028,252.200 231.777 C 257.040 230.526,261.630 229.360,262.400 229.186 C 263.922 228.842,280.247 224.636,282.200 224.084 C 283.385 223.749,283.401 223.707,283.517 220.672 C 283.648 217.214,283.722 217.277,280.573 218.141 C 279.488 218.438,277.250 218.989,275.600 219.364 C 273.950 219.739,271.970 220.203,271.200 220.394 C 269.275 220.873,265.154 221.834,261.800 222.586 C 260.260 222.932,258.370 223.378,257.600 223.578 C 256.279 223.922,252.573 224.798,249.000 225.612 C 248.120 225.812,245.060 226.527,242.200 227.200 C 239.340 227.873,236.280 228.593,235.400 228.800 C 234.520 229.007,231.460 229.727,228.600 230.400 C 225.740 231.073,222.680 231.793,221.800 232.000 C 220.920 232.207,217.860 232.927,215.000 233.600 C 212.140 234.273,209.080 234.993,208.200 235.200 C 207.320 235.407,204.350 236.110,201.600 236.761 C 198.850 237.413,195.327 238.245,193.770 238.610 C 192.214 238.975,190.504 239.212,189.970 239.137 L 189.000 239.000 188.892 230.510 L 188.784 222.019 189.892 221.776 C 190.501 221.643,191.246 221.456,191.547 221.361 C 191.848 221.267,195.628 220.472,199.947 219.595 C 204.266 218.718,211.310 217.280,215.600 216.400 C 222.990 214.884,229.054 213.640,246.600 210.042 C 250.780 209.185,256.090 208.107,258.400 207.646 C 263.191 206.690,267.864 205.718,270.200 205.193 C 271.080 204.994,273.330 204.542,275.200 204.188 C 278.353 203.590,281.212 202.974,282.900 202.530 C 283.576 202.352,283.997 197.730,283.392 197.126 C 283.193 196.927,281.443 197.199,274.000 198.588 C 267.103 199.875,266.135 200.053,263.000 200.617 C 261.240 200.934,258.360 201.472,256.600 201.813 C 254.840 202.154,252.500 202.590,251.400 202.783 C 250.300 202.976,247.780 203.435,245.800 203.803 C 239.972 204.887,238.778 205.108,235.200 205.764 C 226.775 207.310,225.000 207.637,221.900 208.211 C 210.676 210.290,207.910 210.805,204.600 211.429 C 202.840 211.762,200.500 212.191,199.400 212.384 C 198.300 212.577,195.960 213.002,194.200 213.328 C 192.440 213.654,189.380 214.212,187.400 214.568 C 185.420 214.925,183.594 215.290,183.342 215.380 C 183.090 215.469,181.087 214.071,178.892 212.271 C 176.697 210.472,170.263 205.220,164.594 200.600 C 158.925 195.980,154.088 192.020,153.844 191.800 C 153.600 191.580,152.050 190.320,150.400 189.000 C 148.750 187.680,147.199 186.420,146.953 186.200 C 146.707 185.980,145.286 184.810,143.796 183.600 C 142.306 182.390,139.340 179.960,137.205 178.200 C 135.071 176.440,129.573 171.940,124.989 168.200 C 112.261 157.817,109.560 155.611,106.255 152.900 C 102.966 150.202,102.871 150.150,102.582 150.902 " stroke="none" fill="#3a3a3b" fill-rule="evenodd"></path><path id="path4" d="M178.000 100.621 C 175.176 101.132,170.048 101.974,164.600 102.821 C 163.280 103.027,160.940 103.394,159.400 103.637 C 157.860 103.881,155.520 104.237,154.200 104.427 C 152.880 104.618,150.000 105.058,147.800 105.405 C 145.600 105.752,142.450 106.212,140.800 106.428 C 139.150 106.644,137.530 106.919,137.200 107.039 C 136.870 107.159,135.340 107.418,133.800 107.615 C 132.260 107.812,129.290 108.249,127.200 108.587 C 125.110 108.925,122.140 109.377,120.600 109.592 C 119.060 109.808,117.383 110.084,116.873 110.206 C 116.364 110.329,114.744 110.597,113.273 110.802 C 106.446 111.756,102.791 112.358,102.413 112.592 C 102.143 112.759,102.000 117.392,102.000 125.994 L 102.000 139.141 117.300 152.009 C 125.715 159.087,133.492 165.625,134.583 166.539 C 135.674 167.453,137.384 168.893,138.383 169.740 C 139.382 170.587,140.562 171.577,141.003 171.940 C 141.445 172.303,142.879 173.500,144.190 174.600 C 145.500 175.700,147.008 176.960,147.540 177.400 C 148.071 177.840,148.707 178.382,148.953 178.604 C 149.370 178.982,152.945 181.984,155.140 183.800 C 155.671 184.240,156.309 184.780,156.556 185.000 C 156.803 185.220,158.084 186.298,159.403 187.396 C 160.721 188.493,161.998 189.573,162.241 189.796 C 162.483 190.018,163.559 190.920,164.631 191.800 C 167.311 193.999,175.919 201.199,179.800 204.488 C 183.316 207.468,183.331 207.472,187.892 206.618 C 190.678 206.097,193.288 205.634,200.400 204.400 C 201.610 204.190,204.130 203.752,206.000 203.426 C 207.870 203.100,211.110 202.547,213.200 202.197 C 215.290 201.847,217.900 201.398,219.000 201.198 C 220.100 200.999,222.710 200.547,224.800 200.194 C 226.890 199.841,229.410 199.388,230.400 199.189 C 231.390 198.989,232.920 198.725,233.800 198.601 C 234.680 198.477,236.300 198.209,237.400 198.006 C 238.500 197.802,241.110 197.343,243.200 196.984 C 249.404 195.921,253.673 195.179,255.800 194.793 C 256.900 194.593,259.510 194.143,261.600 193.792 C 267.575 192.789,272.028 192.020,274.200 191.615 C 275.300 191.411,277.820 190.953,279.800 190.598 C 284.233 189.804,284.061 189.990,283.918 186.162 L 283.800 183.000 281.400 183.132 C 280.080 183.205,278.190 183.447,277.200 183.670 C 276.210 183.893,274.320 184.230,273.000 184.419 C 271.680 184.608,268.980 185.048,267.000 185.397 C 263.384 186.035,257.525 187.019,253.800 187.616 C 252.700 187.792,250.090 188.235,248.000 188.600 C 242.128 189.625,237.631 190.386,235.000 190.800 C 233.680 191.007,231.070 191.438,229.200 191.756 C 220.140 193.300,217.647 193.720,215.800 194.016 C 214.700 194.192,212.090 194.635,210.000 195.000 C 203.355 196.160,199.468 196.813,197.000 197.181 C 195.680 197.378,193.630 197.733,192.445 197.970 C 187.126 199.032,187.200 199.185,187.200 187.155 C 187.200 179.707,186.799 180.273,192.689 179.411 C 194.840 179.096,198.400 178.546,200.600 178.189 C 202.800 177.831,205.590 177.397,206.800 177.223 C 210.122 176.744,214.759 176.007,217.000 175.600 C 219.241 175.193,223.878 174.456,227.200 173.977 C 228.410 173.803,231.110 173.384,233.200 173.045 C 242.819 171.488,245.147 171.118,247.200 170.823 C 250.522 170.344,255.159 169.607,257.400 169.200 C 260.155 168.700,264.960 167.943,267.600 167.592 C 268.810 167.432,271.600 166.998,273.800 166.628 C 276.000 166.257,279.060 165.785,280.600 165.578 C 284.003 165.120,284.400 164.678,284.400 161.350 C 284.400 157.097,284.537 157.212,269.600 148.877 C 268.610 148.325,267.129 147.451,266.308 146.936 C 265.487 146.421,264.725 146.000,264.615 146.000 C 264.504 146.000,263.238 145.280,261.800 144.400 C 260.362 143.520,259.102 142.800,259.000 142.800 C 258.898 142.800,257.638 142.080,256.200 141.200 C 254.762 140.320,253.502 139.600,253.400 139.600 C 253.298 139.600,252.038 138.880,250.600 138.000 C 249.162 137.120,247.902 136.400,247.800 136.400 C 247.698 136.400,246.438 135.680,245.000 134.800 C 243.562 133.920,242.302 133.200,242.200 133.200 C 242.098 133.200,240.838 132.480,239.400 131.600 C 237.962 130.720,236.702 130.000,236.600 130.000 C 236.498 130.000,235.238 129.280,233.800 128.400 C 232.362 127.520,231.102 126.800,231.000 126.800 C 230.898 126.800,229.638 126.080,228.200 125.200 C 226.762 124.320,225.502 123.600,225.400 123.600 C 225.298 123.600,224.038 122.880,222.600 122.000 C 221.162 121.120,219.902 120.400,219.800 120.400 C 219.698 120.400,218.438 119.680,217.000 118.800 C 215.562 117.920,214.302 117.200,214.200 117.200 C 214.098 117.200,212.838 116.480,211.400 115.600 C 209.962 114.720,208.702 114.000,208.600 114.000 C 208.498 114.000,207.238 113.280,205.800 112.400 C 204.362 111.520,203.102 110.800,203.000 110.800 C 202.898 110.800,201.638 110.080,200.200 109.200 C 198.762 108.320,197.502 107.600,197.400 107.600 C 197.298 107.600,196.038 106.880,194.600 106.000 C 193.162 105.120,191.896 104.400,191.785 104.400 C 191.675 104.400,190.913 103.978,190.092 103.463 C 184.239 99.787,183.529 99.621,178.000 100.621 M185.844 101.651 C 187.140 102.339,188.650 103.218,189.200 103.604 C 189.750 103.991,191.190 104.842,192.400 105.497 C 193.610 106.151,197.660 108.450,201.400 110.606 C 205.140 112.761,208.920 114.923,209.800 115.409 C 210.680 115.896,217.430 119.764,224.800 124.004 C 232.170 128.244,239.010 132.167,240.000 132.720 C 240.990 133.274,242.471 134.149,243.292 134.664 C 244.113 135.179,244.855 135.600,244.942 135.600 C 245.028 135.600,247.147 136.786,249.650 138.236 C 252.152 139.686,255.190 141.424,256.400 142.099 C 257.610 142.774,259.271 143.748,260.092 144.263 C 260.913 144.778,261.675 145.200,261.785 145.200 C 261.896 145.200,263.162 145.920,264.600 146.800 C 266.038 147.680,267.298 148.400,267.400 148.400 C 267.502 148.400,268.762 149.120,270.200 150.000 C 271.638 150.880,272.898 151.600,273.000 151.600 C 273.102 151.600,274.362 152.320,275.800 153.200 C 277.238 154.080,278.488 154.800,278.578 154.800 C 278.669 154.800,279.836 155.451,281.171 156.247 L 283.600 157.694 283.600 160.833 C 283.600 164.539,283.572 164.566,279.162 165.163 C 277.533 165.384,274.400 165.848,272.200 166.194 C 270.000 166.541,266.947 166.999,265.417 167.212 C 263.886 167.425,262.348 167.689,262.000 167.800 C 261.652 167.911,260.114 168.175,258.583 168.388 C 257.053 168.601,254.090 169.053,252.000 169.393 C 249.910 169.733,247.570 170.107,246.800 170.224 C 246.030 170.341,244.230 170.625,242.800 170.855 C 241.370 171.085,239.120 171.443,237.800 171.651 C 236.480 171.858,233.690 172.297,231.600 172.626 C 229.510 172.955,226.547 173.399,225.017 173.612 C 223.486 173.825,221.948 174.089,221.600 174.200 C 221.252 174.311,219.714 174.576,218.183 174.790 C 216.653 175.003,213.690 175.453,211.600 175.790 C 209.510 176.126,206.540 176.579,205.000 176.798 C 203.460 177.016,201.300 177.364,200.200 177.571 C 199.100 177.778,196.130 178.246,193.600 178.612 C 188.644 179.328,186.931 179.807,186.729 180.537 C 186.198 182.447,186.896 199.160,187.512 199.278 C 188.116 199.395,190.274 199.076,196.200 197.995 C 197.300 197.794,199.910 197.345,202.000 196.997 C 204.090 196.649,206.790 196.189,208.000 195.976 C 211.677 195.328,214.859 194.814,217.783 194.398 C 219.314 194.180,220.844 193.915,221.183 193.809 C 221.523 193.704,222.970 193.440,224.400 193.224 C 226.975 192.834,231.431 192.092,238.000 190.959 C 239.870 190.637,242.390 190.215,243.600 190.022 C 244.810 189.829,247.510 189.378,249.600 189.021 C 251.690 188.663,254.570 188.193,256.000 187.976 C 257.430 187.760,258.870 187.500,259.200 187.400 C 259.530 187.300,260.970 187.040,262.400 186.824 C 265.205 186.399,270.566 185.502,276.000 184.549 C 277.870 184.221,280.345 183.851,281.500 183.727 L 283.600 183.501 283.594 186.050 C 283.591 187.453,283.456 188.787,283.294 189.015 C 282.980 189.457,280.132 190.022,270.400 191.572 C 268.970 191.800,266.900 192.162,265.800 192.378 C 264.700 192.593,262.090 193.051,260.000 193.395 C 257.910 193.739,255.390 194.187,254.400 194.389 C 253.410 194.592,251.790 194.867,250.800 195.000 C 249.810 195.133,248.190 195.408,247.200 195.611 C 246.210 195.813,243.690 196.259,241.600 196.600 C 239.510 196.941,236.990 197.387,236.000 197.589 C 235.010 197.792,233.390 198.067,232.400 198.200 C 231.410 198.333,229.790 198.608,228.800 198.811 C 227.810 199.013,225.290 199.464,223.200 199.813 C 217.598 200.746,212.863 201.563,210.600 201.987 C 209.500 202.192,206.890 202.647,204.800 202.997 C 197.911 204.150,192.763 205.055,187.000 206.124 C 183.071 206.854,184.357 207.600,172.800 197.884 C 167.850 193.722,163.440 190.016,163.000 189.648 C 162.560 189.280,159.680 186.854,156.600 184.257 C 153.520 181.660,150.108 178.785,149.017 177.868 C 147.926 176.950,146.216 175.507,145.217 174.660 C 144.218 173.813,143.038 172.823,142.597 172.460 C 141.139 171.263,137.014 167.808,136.556 167.400 C 136.086 166.982,135.717 166.671,131.797 163.400 C 130.478 162.300,129.310 161.299,129.200 161.176 C 129.090 161.054,127.470 159.707,125.600 158.183 C 123.730 156.660,122.110 155.300,122.000 155.160 C 121.890 155.020,120.180 153.591,118.200 151.984 C 116.220 150.377,114.510 148.958,114.400 148.830 C 114.290 148.702,112.580 147.250,110.600 145.603 C 105.454 141.323,104.757 140.726,103.513 139.531 L 102.400 138.462 102.400 126.021 L 102.400 113.580 103.428 113.189 C 103.993 112.974,105.748 112.617,107.328 112.395 C 108.908 112.174,111.100 111.824,112.200 111.618 C 113.300 111.412,116.180 110.955,118.600 110.602 C 121.020 110.249,123.990 109.785,125.200 109.570 C 127.570 109.150,131.332 108.589,135.800 107.991 C 137.340 107.785,139.017 107.516,139.527 107.394 C 140.036 107.271,141.656 107.003,143.127 106.797 C 144.597 106.590,147.510 106.145,149.600 105.808 C 151.690 105.470,154.722 105.022,156.337 104.812 C 157.952 104.602,159.579 104.334,159.953 104.215 C 160.327 104.096,161.886 103.825,163.417 103.612 C 164.947 103.399,168.000 102.941,170.200 102.594 C 172.400 102.248,175.550 101.784,177.200 101.563 C 178.850 101.342,180.740 101.007,181.400 100.817 C 183.224 100.293,183.319 100.311,185.844 101.651 M102.263 149.900 C 101.703 150.815,101.832 178.715,102.399 179.399 C 102.725 179.791,104.883 181.648,107.195 183.525 C 109.508 185.403,111.580 187.140,111.800 187.387 C 112.020 187.634,113.730 189.083,115.600 190.608 C 118.219 192.744,131.131 203.549,138.200 209.521 C 140.647 211.588,142.030 212.738,143.510 213.936 C 144.418 214.671,145.575 215.633,146.081 216.074 C 146.586 216.515,147.792 217.534,148.759 218.338 C 149.727 219.142,150.717 219.982,150.959 220.204 C 151.202 220.427,152.479 221.507,153.797 222.604 C 155.116 223.702,156.394 224.780,156.638 225.000 C 156.882 225.220,157.873 226.054,158.841 226.852 C 160.386 228.128,167.198 233.773,170.000 236.099 C 170.550 236.555,171.636 237.485,172.414 238.164 C 173.192 238.844,174.573 239.997,175.483 240.726 C 176.393 241.456,177.646 242.503,178.269 243.054 C 178.891 243.604,180.210 244.718,181.200 245.527 C 182.190 246.337,183.090 247.096,183.200 247.214 C 185.117 249.263,186.157 249.401,190.600 248.199 C 191.700 247.902,193.770 247.371,195.200 247.020 C 196.630 246.669,198.430 246.220,199.200 246.022 C 204.478 244.670,206.050 244.263,208.000 243.746 C 209.210 243.425,210.830 243.005,211.600 242.813 C 212.370 242.621,214.170 242.165,215.600 241.800 C 217.030 241.435,218.830 240.979,219.600 240.787 C 220.370 240.595,221.990 240.175,223.200 239.854 C 224.410 239.533,226.570 238.969,228.000 238.600 C 233.081 237.289,235.016 236.769,236.228 236.387 C 236.904 236.174,237.861 236.000,238.355 236.000 C 238.849 236.000,239.598 235.815,240.021 235.589 C 240.443 235.363,241.556 235.012,242.494 234.810 C 243.432 234.608,245.370 234.153,246.800 233.799 C 248.230 233.446,250.030 233.013,250.800 232.837 C 251.570 232.662,253.010 232.296,254.000 232.024 C 256.507 231.335,259.938 230.427,261.600 230.013 C 262.370 229.821,264.170 229.365,265.600 229.000 C 267.030 228.635,268.830 228.179,269.600 227.987 C 270.370 227.795,271.990 227.375,273.200 227.054 C 274.410 226.733,276.570 226.173,278.000 225.809 C 284.535 224.147,284.395 224.258,284.331 220.786 C 284.258 216.856,283.548 216.506,278.619 217.969 C 277.035 218.439,273.822 219.220,271.800 219.627 C 270.920 219.804,269.030 220.241,267.600 220.598 C 266.170 220.956,264.145 221.406,263.101 221.600 C 262.057 221.793,261.021 222.063,260.800 222.200 C 260.579 222.337,259.543 222.607,258.499 222.800 C 257.455 222.994,255.430 223.444,254.000 223.800 C 252.570 224.156,250.545 224.606,249.501 224.800 C 248.457 224.993,247.421 225.263,247.200 225.400 C 246.979 225.537,245.943 225.807,244.899 226.000 C 243.855 226.194,241.830 226.644,240.400 227.000 C 238.970 227.356,236.945 227.806,235.901 228.000 C 234.857 228.193,233.821 228.463,233.600 228.600 C 233.379 228.737,232.343 229.007,231.299 229.200 C 230.255 229.394,228.230 229.844,226.800 230.200 C 225.370 230.556,223.345 231.006,222.301 231.200 C 221.257 231.393,220.221 231.663,220.000 231.800 C 219.779 231.937,218.743 232.207,217.699 232.400 C 216.655 232.594,214.630 233.044,213.200 233.400 C 211.770 233.756,209.745 234.206,208.701 234.400 C 207.657 234.593,206.621 234.863,206.400 235.000 C 206.179 235.137,205.143 235.407,204.099 235.600 C 203.055 235.794,201.030 236.244,199.600 236.600 C 198.170 236.956,196.190 237.405,195.200 237.596 C 194.210 237.788,192.813 238.156,192.095 238.413 C 189.747 239.256,189.723 239.187,189.401 230.828 C 189.086 222.631,189.201 222.000,191.017 222.000 C 191.522 222.000,192.985 221.750,194.268 221.445 C 195.550 221.140,197.680 220.675,199.000 220.411 C 201.686 219.873,205.046 219.187,209.800 218.203 C 211.560 217.839,213.810 217.378,214.800 217.179 C 215.790 216.981,217.860 216.560,219.400 216.244 C 220.940 215.928,223.280 215.453,224.600 215.187 C 225.920 214.922,228.080 214.475,229.400 214.193 C 230.720 213.911,233.330 213.378,235.200 213.007 C 237.070 212.637,239.320 212.180,240.200 211.991 C 241.080 211.802,243.240 211.357,245.000 211.003 C 247.980 210.403,250.642 209.851,256.600 208.599 C 257.920 208.321,260.080 207.885,261.400 207.629 C 262.720 207.372,264.970 206.912,266.400 206.605 C 267.830 206.299,269.630 205.928,270.400 205.780 C 271.170 205.633,273.060 205.253,274.600 204.935 C 276.140 204.618,277.940 204.269,278.600 204.160 C 283.928 203.279,284.400 202.923,284.400 199.780 C 284.400 196.654,283.817 195.875,281.899 196.437 C 281.185 196.646,279.520 196.993,278.200 197.207 C 276.880 197.422,274.450 197.870,272.800 198.203 C 271.150 198.536,268.573 198.983,267.074 199.196 C 265.575 199.410,264.201 199.676,264.020 199.787 C 263.840 199.899,262.547 200.175,261.146 200.400 C 259.746 200.626,257.160 201.079,255.400 201.406 C 253.640 201.734,251.054 202.183,249.654 202.406 C 248.253 202.628,246.969 202.895,246.800 203.000 C 246.631 203.105,245.347 203.375,243.946 203.600 C 242.546 203.826,239.960 204.279,238.200 204.606 C 236.440 204.934,233.854 205.383,232.454 205.606 C 231.053 205.828,229.756 206.104,229.570 206.218 C 229.385 206.333,228.100 206.592,226.716 206.793 C 225.332 206.994,222.760 207.437,221.000 207.777 C 219.240 208.117,216.573 208.573,215.074 208.790 C 213.575 209.007,212.201 209.276,212.020 209.387 C 211.840 209.499,210.547 209.775,209.146 210.000 C 207.746 210.226,205.160 210.687,203.400 211.026 C 201.640 211.364,199.068 211.806,197.684 212.007 C 196.300 212.208,195.015 212.467,194.830 212.582 C 194.644 212.696,193.347 212.975,191.946 213.200 C 190.546 213.426,187.960 213.863,186.200 214.172 C 182.367 214.845,183.001 215.142,176.600 209.671 C 176.160 209.294,174.453 207.910,172.808 206.593 C 171.162 205.277,169.362 203.814,168.808 203.343 C 167.734 202.430,156.890 193.543,153.991 191.200 C 153.039 190.430,151.602 189.260,150.800 188.600 C 149.998 187.940,148.555 186.770,147.595 186.000 C 146.635 185.230,145.096 183.970,144.177 183.200 C 143.257 182.430,142.166 181.530,141.752 181.200 C 139.693 179.557,134.575 175.374,134.400 175.190 C 134.290 175.074,133.390 174.357,132.400 173.595 C 131.410 172.834,130.402 172.029,130.159 171.806 C 129.193 170.916,125.825 168.166,125.037 167.623 C 124.577 167.306,124.110 166.942,124.000 166.814 C 123.890 166.687,122.720 165.686,121.400 164.591 C 120.080 163.496,118.910 162.510,118.800 162.399 C 118.690 162.289,117.250 161.119,115.600 159.799 C 113.950 158.480,112.399 157.220,112.153 157.000 C 111.907 156.780,110.583 155.700,109.211 154.600 C 107.839 153.500,105.914 151.925,104.934 151.100 C 103.139 149.590,102.601 149.348,102.263 149.900 M106.255 152.900 C 109.560 155.611,112.261 157.817,124.989 168.200 C 129.573 171.940,135.071 176.440,137.205 178.200 C 139.340 179.960,142.306 182.390,143.796 183.600 C 145.286 184.810,146.707 185.980,146.953 186.200 C 147.199 186.420,148.750 187.680,150.400 189.000 C 152.050 190.320,153.600 191.580,153.844 191.800 C 154.088 192.020,158.925 195.980,164.594 200.600 C 170.263 205.220,176.697 210.472,178.892 212.271 C 181.087 214.071,183.090 215.469,183.342 215.380 C 183.594 215.290,185.420 214.925,187.400 214.568 C 189.380 214.212,192.440 213.654,194.200 213.328 C 195.960 213.002,198.300 212.577,199.400 212.384 C 200.500 212.191,202.840 211.762,204.600 211.429 C 207.910 210.805,210.676 210.290,221.900 208.211 C 225.000 207.637,226.775 207.310,235.200 205.764 C 238.778 205.108,239.972 204.887,245.800 203.803 C 247.780 203.435,250.300 202.976,251.400 202.783 C 252.500 202.590,254.840 202.154,256.600 201.813 C 258.360 201.472,261.240 200.934,263.000 200.617 C 266.135 200.053,267.103 199.875,274.000 198.588 C 281.443 197.199,283.193 196.927,283.392 197.126 C 283.997 197.730,283.576 202.352,282.900 202.530 C 281.212 202.974,278.353 203.590,275.200 204.188 C 273.330 204.542,271.080 204.994,270.200 205.193 C 267.864 205.718,263.191 206.690,258.400 207.646 C 256.090 208.107,250.780 209.185,246.600 210.042 C 229.054 213.640,222.990 214.884,215.600 216.400 C 211.310 217.280,204.266 218.718,199.947 219.595 C 195.628 220.472,191.848 221.267,191.547 221.361 C 191.246 221.456,190.501 221.643,189.892 221.776 L 188.784 222.019 188.892 230.510 L 189.000 239.000 189.970 239.137 C 190.504 239.212,192.214 238.975,193.770 238.610 C 195.327 238.245,198.850 237.413,201.600 236.761 C 204.350 236.110,207.320 235.407,208.200 235.200 C 209.080 234.993,212.140 234.273,215.000 233.600 C 217.860 232.927,220.920 232.207,221.800 232.000 C 222.680 231.793,225.740 231.073,228.600 230.400 C 231.460 229.727,234.520 229.007,235.400 228.800 C 236.280 228.593,239.340 227.873,242.200 227.200 C 245.060 226.527,248.120 225.812,249.000 225.612 C 252.573 224.798,256.279 223.922,257.600 223.578 C 258.370 223.378,260.260 222.932,261.800 222.586 C 265.154 221.834,269.275 220.873,271.200 220.394 C 271.970 220.203,273.950 219.739,275.600 219.364 C 277.250 218.989,279.488 218.438,280.573 218.141 C 283.722 217.277,283.648 217.214,283.517 220.672 C 283.401 223.707,283.385 223.749,282.200 224.084 C 280.247 224.636,263.922 228.842,262.400 229.186 C 261.630 229.360,257.040 230.526,252.200 231.777 C 247.360 233.028,239.890 234.954,235.600 236.057 C 231.310 237.160,224.650 238.872,220.800 239.863 C 216.950 240.853,213.023 241.826,212.073 242.025 C 211.124 242.223,210.191 242.482,210.000 242.600 C 209.809 242.718,208.876 242.974,207.927 243.169 C 206.407 243.482,201.481 244.736,190.636 247.573 C 186.611 248.625,185.624 248.612,184.396 247.490 C 183.848 246.990,180.700 244.340,177.400 241.602 C 171.929 237.061,156.272 223.942,151.400 219.815 C 150.300 218.883,146.646 215.834,143.280 213.039 C 139.913 210.243,131.980 203.601,125.650 198.278 C 119.320 192.955,113.345 187.943,112.371 187.139 C 111.397 186.336,108.800 184.173,106.600 182.332 L 102.600 178.986 102.495 165.195 C 102.396 152.223,102.457 150.400,102.991 150.400 C 103.110 150.400,104.579 151.525,106.255 152.900 " stroke="none" fill="#90ccdb" fill-rule="evenodd"></path></g></svg>